<?xml version="1.0" encoding="UTF-8" standalone="no"?>
<!-- Created with Inkscape (http://www.inkscape.org/) -->

<svg
   version="1.1"
   id="svg2"
   width="2680.2029"
   height="2071.0659"
   viewBox="0 0 2680.2029 2071.0659"
   sodipodi:docname="Logo_colores_i-Gamma.svg"
   inkscape:version="1.1 (c68e22c387, 2021-05-23)"
   xmlns:inkscape="http://www.inkscape.org/namespaces/inkscape"
   xmlns:sodipodi="http://sodipodi.sourceforge.net/DTD/sodipodi-0.dtd"
   xmlns="http://www.w3.org/2000/svg"
   xmlns:svg="http://www.w3.org/2000/svg">
  <defs
     id="defs6" />
  <sodipodi:namedview
     id="namedview4"
     pagecolor="#ffffff"
     bordercolor="#666666"
     borderopacity="1.0"
     inkscape:pageshadow="2"
     inkscape:pageopacity="0.0"
     inkscape:pagecheckerboard="0"
     showgrid="false"
     inkscape:zoom="0.16900373"
     inkscape:cx="1928.9516"
     inkscape:cy="1970.3708"
     inkscape:current-layer="g8" />
  <g
     inkscape:groupmode="layer"
     inkscape:label="Image"
     id="g8">
    <g
       id="g863">
      <path
         style="fill:#fefefe;stroke-width:1.21827"
         d="m 1549.6446,526.45306 c 5.3009,-3.84669 8.5279,-9.78284 8.5279,-15.6877 0,-5.82236 -3.0063,-13.53717 -5.6741,-14.5609 -2.6812,-1.02888 -1.9028,-3.46483 3.1498,-9.85693 6.7003,-8.47644 20.4765,-17.3396 33.6747,-21.66507 9.8706,-3.23491 12.4059,-3.56401 27.3268,-3.54716 15.2722,0.0172 17.2034,0.28808 27.0455,3.7932 5.8293,2.07606 13.3058,5.51167 16.6142,7.63468 5.8125,3.72992 5.9832,4.00244 5.0624,8.08496 -1.7827,7.90398 1.3402,16.03022 7.6077,19.79712 5.7455,3.45321 10.0835,4.17346 15.825,2.62744 14.4359,-3.88719 18.9984,-21.14014 8.3945,-31.74397 -5.2881,-5.28827 -11.6202,-6.96495 -18.9326,-5.01318 -4.5713,1.22016 -5.3771,1.00676 -12.8409,-3.40095 -35.5098,-20.96985 -83.9096,-16.51893 -111.9443,10.29452 -4.2553,4.07 -9.0707,9.67238 -10.7007,12.44973 -2.2178,3.77871 -3.95,5.23614 -6.8823,5.79035 -9.5257,1.80034 -15.4922,9.09768 -15.4922,18.94768 0,8.22811 5.4804,15.9995 12.9372,18.34543 4.7634,1.49855 12.5977,0.39834 16.3014,-2.28925 z"
         id="path1134" />
      <path
         style="fill:#fefefe;stroke-width:1.21827"
         d="m 1151.7821,528.6093 c 9.8808,-2.74336 15.5658,-13.08065 12.8139,-23.30036 -1.7528,-6.50936 -8.2935,-12.85614 -14.3268,-13.90193 -3.8004,-0.65877 -5.2355,-1.91009 -9.4312,-8.22399 -8.9868,-13.52334 -28.272,-26.03702 -47.437,-30.7806 -13.0645,-3.23361 -37.4166,-2.96757 -49.7046,0.54299 -9.4536,2.70081 -21.6517,8.21921 -27.8709,12.60884 -2.863,2.02073 -3.9091,2.1281 -8.5752,0.88011 -7.41842,-1.98411 -13.94452,-0.49148 -18.71689,4.28088 -14.27265,14.27266 -1.29147,37.56223 18.03579,32.35795 9.8744,-2.65892 15.565,-12.24344 13.7273,-23.12075 l -0.7822,-4.62963 11.3596,-5.60703 c 13.1684,-6.49985 24.3137,-9.1573 38.5302,-9.18704 24.4593,-0.0512 48.0434,10.33973 61.1756,26.95318 l 4.8803,6.17401 -3.609,4.11044 c -8.6803,9.88631 -5.5062,24.40585 6.5303,29.8726 5.8261,2.64605 7.0469,2.73445 13.4008,0.97033 z"
         id="path1132" />
      <path
         style="fill:#fefefe;stroke-width:1.21827"
         d="m 1208.2344,534.82889 c 5.6812,-3.46386 8.8114,-9.22549 8.8168,-16.2288 0,-6.22393 -1.2278,-9.5312 -5.165,-13.85751 -2.4285,-2.66856 -2.4285,-2.66857 0.2415,-6.98863 3.7818,-6.1192 13.8719,-14.59396 23.2308,-19.51198 12.2751,-6.45037 25.1781,-9.56942 39.5653,-9.56415 15.0513,0.006 24.5118,2.29246 39.0879,9.44906 l 11.0676,5.43397 -1.2182,5.94688 c -1.0593,5.17104 -0.8718,6.64736 1.4373,11.31601 3.4942,7.06442 7.7166,9.95925 15.4637,10.6017 7.6795,0.63684 14.0225,-2.01982 17.942,-7.51475 2.1659,-3.03628 2.7269,-5.52027 2.7653,-12.24212 l 0.048,-8.43294 7.2615,-4.06364 c 31.9401,-17.87404 75.542,-12.54289 98.8333,12.08422 7.6757,8.11591 9.5715,11.38635 7.1412,12.31898 -0.9626,0.36936 -2.8714,2.86932 -4.2417,5.55548 -6.8531,13.43332 1.6502,28.13434 16.2673,28.12363 11.4483,-0.009 18.9985,-7.51091 18.9985,-18.87869 0,-9.82154 -7.5662,-18.85027 -15.8285,-18.88807 -2.2871,-0.011 -3.7627,-1.26934 -5.9253,-5.05518 -9.1669,-16.04793 -30.1872,-29.74986 -52.8075,-34.42222 -24.1438,-4.98703 -49.7474,-0.90683 -70.4846,11.23247 -5.6853,3.32814 -8.6806,4.41571 -10.3553,3.75992 -3.523,-1.37959 -12.5416,-1.27061 -15.2603,0.18443 -1.8494,0.98979 -3.1375,0.74965 -5.7067,-1.06398 -5.8232,-4.11075 -17.7425,-9.64334 -27.1173,-12.58715 -7.8478,-2.46425 -11.5989,-2.85565 -27.3683,-2.85565 -20.9746,0 -29.2144,1.9061 -46.1088,10.66631 -10.5164,5.45297 -22.8934,16.64374 -27.5275,24.88908 -2.2985,4.08954 -3.6283,5.12487 -7.346,5.71936 -12.0668,1.92955 -18.3923,15.84213 -12.5184,27.53346 4.6398,9.23495 17.7963,12.837 26.8113,7.3405 z"
         id="path1130" />
      <path
         style="fill:#fefefe;stroke-width:1.21827"
         d="m 1698.4289,668.14322 c 10.6878,-5.52687 12.6749,-20.12586 4.0402,-29.68339 -4.1902,-4.63808 -4.1951,-4.65766 -4.1951,-16.78827 0,-26.52995 -11.7136,-51.58218 -31.8463,-68.11096 -3.5911,-2.94826 -7.4887,-5.6663 -8.6613,-6.04011 -1.44,-0.45904 -2.1334,-1.93804 -2.1365,-4.55693 0,-2.1325 -1.094,-5.66402 -2.4254,-7.84781 -7.2555,-11.89985 -25.6512,-11.89985 -32.9066,0 -4.7055,7.71755 -2.227,20.31446 5.0451,25.64225 6.4326,4.71272 19.8989,3.85553 24.8178,-1.57976 2.0939,-2.31363 2.2261,-2.28648 7.6396,1.5687 11.785,8.3927 23.5379,26.30708 27.6369,42.12589 2.2916,8.84337 3.6656,25.77605 2.2491,27.71556 -0.5423,0.74241 -3.5754,2.48684 -6.7403,3.87651 -7.5545,3.31711 -10.6845,8.39073 -10.6798,17.31172 0.012,15.24949 14.2818,23.54468 28.1626,16.3666 z"
         id="path1128" />
      <path
         style="fill:#fefefe;stroke-width:1.21827"
         d="m 1002.0304,667.59604 c 5.378,-3.311 7.9195,-8.45148 7.9142,-16.00739 -0.01,-8.72018 -3.1987,-13.83534 -10.68781,-17.12375 -7.08116,-3.10929 -7.53978,-3.78023 -7.56307,-11.06451 -0.0698,-21.854 12.07308,-47.5375 28.99088,-61.31862 l 6.5611,-5.34462 3.5703,3.00425 c 4.1422,3.48541 10.282,4.92139 16.6346,3.89051 16.4443,-2.66853 20.5135,-26.09699 6.063,-34.90755 -5.3114,-3.23844 -14.8123,-3.23844 -20.1238,0 -4.9993,3.04815 -8.8109,9.20378 -8.8168,14.2392 0,2.61889 -0.6965,4.09789 -2.1365,4.55693 -3.5501,1.13169 -14.8564,10.99384 -20.5554,17.92989 -12.95327,15.76482 -19.95222,35.57053 -19.95222,56.46104 0,11.76026 -0.15939,12.53354 -3.16143,15.33812 -6.51644,6.08778 -8.31283,14.17733 -4.9255,22.18043 4.44808,10.5092 18.00388,14.43626 28.18845,8.16607 z"
         id="path1126" />
      <path
         style="fill:#fefefe;stroke-width:1.21827"
         d="m 1526.1942,679.9116 c 28.5126,-6.26583 53.801,-20.03358 78.6772,-42.83414 l 8.3234,-7.62877 7.5141,0.23707 c 9.6476,0.30437 14.6106,-2.54187 18.0703,-10.36319 3.5583,-8.04412 2.2919,-15.28939 -3.7241,-21.30539 -14.073,-14.07291 -37.0128,-0.801 -31.8545,18.42949 l 1.4706,5.48224 -9.5437,8.95414 c -23.4393,21.99113 -51.9774,36.06502 -82.0453,40.46153 -16.9583,2.47963 -42.8947,0.28896 -61.1256,-5.16288 -3.99,-1.19316 -4.5843,-1.90017 -5.3357,-6.3478 -1.0953,-6.48256 -7.9811,-13.60774 -14.2954,-14.79232 -11.3235,-2.12431 -21.7954,4.80365 -23.3962,15.47838 -1.1068,7.38071 2.4417,15.76262 8.1451,19.23992 7.0837,4.31882 20.4998,2.85002 25.1503,-2.75347 1.2346,-1.48765 3.1188,-1.3313 13.3122,1.10462 24.0685,5.75159 49.7054,6.4049 70.6573,1.80057 z"
         id="path1124" />
      <path
         style="fill:#fefefe;stroke-width:1.21827"
         d="m 1200.8496,682.2129 c 6.6398,-0.68137 17.385,-2.52321 23.8783,-4.09297 10.146,-2.45286 12.0084,-2.60994 13.2471,-1.11736 4.5141,5.43914 16.777,7.21981 23.9995,3.48492 2.156,-1.11493 4.9905,-3.78224 6.2991,-5.92738 9.3697,-15.36037 -2.7062,-32.83722 -20.3962,-29.51853 -6.3143,1.18458 -13.2001,8.30976 -14.2954,14.79232 -0.7514,4.44763 -1.3457,5.15464 -5.3357,6.3478 -10.972,3.28109 -23.8492,5.32872 -37.4847,5.96048 -38.2644,1.77286 -75.1386,-12.62472 -105.6862,-41.26527 l -9.5437,-8.948 1.4705,-5.48224 c 5.1583,-19.23049 -17.7814,-32.5024 -31.8543,-18.42949 -6.016,6.016 -7.2825,13.26127 -3.7242,21.30539 3.4678,7.83954 8.4176,10.6678 18.1327,10.36092 7.3979,-0.23368 7.7142,-0.1122 13.401,5.14705 28.0036,25.89819 54.1774,40.16513 83.4589,45.4922 17.6575,3.21236 27.4779,3.63011 44.4333,1.89016 z"
         id="path1122" />
      <path
         style="fill:#fefefe;stroke-width:1.21827"
         d="m 1354.4271,723.45978 c 5.9173,-3.65707 9.3348,-11.61377 8.2166,-19.13009 -0.6687,-4.49456 -1.9059,-6.673 -6.0518,-10.65594 l -5.2113,-5.00641 2.7559,-10.90226 c 8.9476,-35.39613 30.1287,-64.42989 60.7972,-83.33669 36.8905,-22.74265 85.1837,-27.60135 123.4419,-12.4193 l 7.6142,3.02156 v 5.06712 c 0,2.78692 0.9999,6.97735 2.2221,9.31207 2.5462,4.86395 10.8761,9.72719 16.6611,9.72719 2.0612,0 6.1533,-1.2335 9.0933,-2.74112 15.1166,-7.75139 12.1532,-31.33201 -4.407,-35.06774 -5.2232,-1.17826 -14.139,0.53257 -16.2914,3.1261 -1.0727,1.29252 -2.6382,1.01055 -8.2603,-1.48782 -27.3238,-12.14249 -69.1641,-13.44512 -101.962,-3.17441 -45.9223,14.38069 -81.254,49.06802 -96.1776,94.42383 -2.2684,6.89446 -4.402,11.71303 -4.741,10.70796 -0.3392,-1.00508 -1.8434,-5.66498 -3.3429,-10.35533 -5.642,-17.64858 -12.9357,-31.06572 -25.6968,-47.27041 -37.3616,-47.44431 -107.8624,-66.95508 -167.2466,-46.28479 -11.8184,4.11372 -12.2455,4.17234 -15.6683,2.15046 -7.8575,-4.64153 -19.8761,-1.87536 -25.6796,5.91032 -3.5739,4.79448 -3.6023,16.31069 -0.052,21.06585 4.1091,5.50363 8.5273,8.08818 14.7579,8.63304 11.1044,0.97109 19.8876,-6.97962 19.8876,-18.00268 v -5.82368 l 6.8327,-2.55643 c 38.2705,-14.31882 78.5278,-11.88384 115.4116,6.98072 35.6285,18.22247 60.0386,49.24128 70.2628,89.28511 l 2.5562,10.01155 -4.1651,3.43315 c -5.5481,4.57332 -7.3643,9.35054 -6.6821,17.57704 0.44,5.30668 1.305,7.5115 4.1097,10.47576 4.6298,4.89317 6.956,5.76755 15.5914,5.8606 5.3142,0.0573 8.266,-0.60273 11.4237,-2.55433 z"
         id="path1120" />
      <path
         style="fill:#fefefe;stroke-width:1.21827"
         d="m 1765.4799,738.57865 c 7.3542,-4.32843 10.7433,-13.84868 7.8841,-22.14753 -1.7445,-5.06356 -1.7051,-5.26953 2.3107,-12.06038 8.5517,-14.46106 13.8233,-38.41444 12.2188,-55.52099 -2.7132,-28.92827 -17.1478,-54.92235 -37.2949,-67.16102 -5.445,-3.30775 -7.2484,-5.09423 -7.2484,-7.18056 0,-1.52752 -1.2445,-4.64011 -2.7654,-6.91687 -7.5199,-11.25649 -23.2515,-10.96356 -31.8802,0.59359 -3.5503,4.75516 -3.5217,16.27137 0.052,21.06585 3.9495,5.29846 9.8105,8.17518 16.4518,8.07499 6.1033,-0.0921 13.6323,-3.69674 14.9626,-7.16372 0.5942,-1.54834 1.6101,-1.24871 5.9078,1.74264 12.4284,8.65058 21.9091,21.9989 27.3821,38.55218 2.7909,8.44162 3.2334,11.86611 3.3055,25.58375 0.093,17.72511 -1.3511,24.32635 -8.5342,39.00808 l -4.1837,8.55122 -7.8191,-0.0233 c -6.0211,-0.0179 -8.5938,0.55433 -11.1877,2.48852 -11.6065,8.65484 -11.8366,24.14831 -0.4739,31.90442 5.0771,3.46557 15.5409,3.77037 20.912,0.60913 z"
         id="path1118" />
      <path
         style="fill:#fefefe;stroke-width:1.21827"
         d="m 935.63509,737.96951 c 11.36277,-7.7561 11.1326,-23.24958 -0.47397,-31.90442 -2.59384,-1.93419 -5.16659,-2.50646 -11.18757,-2.48852 l -7.8191,0.0233 -4.18375,-8.55122 c -7.18313,-14.68173 -8.62735,-21.28297 -8.53422,-39.00808 0.0721,-13.71764 0.51454,-17.14212 3.30553,-25.58375 5.4213,-16.39718 14.98129,-29.93366 27.06505,-38.3228 l 4.87309,-3.38314 3.39149,3.4567 c 7.20049,7.33897 19.51836,7.05512 27.20026,-0.62678 13.11154,-13.11154 0.27927,-35.3702 -18.37379,-31.87086 -5.64863,1.05969 -12.26981,7.50356 -13.88975,13.51777 -1.08107,4.01364 -2.44113,5.52301 -7.93938,8.811 -24.68961,14.76452 -40.35468,51.65249 -36.22063,85.29202 1.6875,13.73145 6.01872,27.46699 11.6798,37.04001 4.00135,6.76636 4.04949,7.01369 2.33391,11.99317 -2.88682,8.37905 0.12825,17.09222 7.62475,22.03456 5.11139,3.36988 15.90363,3.15097 21.14828,-0.42897 z"
         id="path1116" />
      <path
         style="fill:#fefefe;stroke-width:1.21827"
         d="m 1175.2707,834.567 c 2.1452,-1.30797 4.819,-4.18409 5.9418,-6.39139 1.1228,-2.20729 2.1245,-4.12036 2.226,-4.25125 0.1015,-0.13089 5.6511,-1.06038 12.3324,-2.06554 31.5215,-4.74223 55.9738,-18.16464 73.6782,-40.4438 4.0033,-5.03771 9.0529,-12.36223 11.2214,-16.27672 3.6811,-6.64523 4.2805,-7.15535 9.0374,-7.69151 23.1844,-2.61316 20.4425,-37.44682 -2.9475,-37.44682 -6.0271,0 -10.5253,2.01986 -14.8823,6.6829 -2.6759,2.8639 -3.0457,4.34494 -3.0457,12.20035 0,7.74171 0.3891,9.35496 2.9016,12.02938 l 2.9017,3.08864 -5.7751,9.26582 c -17.2218,27.63105 -45.7064,45.36054 -78.2276,48.69049 -6.9574,0.7124 -7.1219,0.65743 -9.5163,-3.17949 -4.1483,-6.64739 -8.422,-8.98114 -16.4467,-8.98114 -7.6859,0 -11.5995,1.99652 -16.3279,8.32968 -5.4417,7.28857 -2.2947,20.95206 6.1005,26.48655 4.8314,3.18509 15.5678,3.16132 20.8281,-0.0461 z"
         id="path1114" />
      <path
         style="fill:#fefefe;stroke-width:1.21827"
         d="m 1526.262,834.4244 c 7.7334,-4.77196 10.8257,-19.29693 5.5988,-26.29785 -4.7283,-6.33311 -8.6419,-8.32963 -16.3279,-8.32963 -8.0248,0 -12.2983,2.33375 -16.4467,8.98114 -2.3944,3.83692 -2.559,3.89189 -9.5163,3.17949 -30.9144,-3.16543 -58.9144,-19.77537 -75.9491,-45.05403 -8.137,-12.07472 -8.324,-12.61442 -5.4362,-15.68829 3.288,-3.4999 4.8338,-11.10641 3.4967,-17.20511 -1.8603,-8.48426 -9.0541,-14.01015 -18.2388,-14.01015 -14.8507,0 -23.8647,15.60122 -16.4682,28.50262 3.0513,5.32227 9.363,9.2566 14.8848,9.27834 3.2222,0.0127 4.162,0.9032 7.6449,7.24456 17.3465,31.58259 48.0657,51.82033 86.9173,57.26107 10.1566,1.42234 10.5429,1.59539 12.4392,5.57165 4.3436,9.10879 17.9839,12.37742 27.4015,6.56624 z"
         id="path1112" />
      <path
         style="fill:#fefefe;stroke-width:1.21827"
         d="m 1662.9441,844.42256 c 1.6751,-1.21557 4.3276,-4.07849 5.8946,-6.36206 2.3519,-3.42756 2.7662,-5.33486 2.375,-10.93212 -0.6302,-9.01792 -4.094,-13.82174 -11.9877,-16.62531 -5.0854,-1.80622 -6.2403,-2.81048 -7.3867,-6.42356 -2.7474,-8.65877 -12.5094,-25.52548 -19.7883,-34.19014 -18.9875,-22.60214 -48.9309,-37.37785 -84.051,-41.47531 -16.9229,-1.9744 -41.5501,-0.70879 -59.8586,3.0762 -14.1704,2.92946 -14.672,2.95267 -17.0559,0.7893 -4.1151,-3.73446 -7.5109,-4.97018 -13.6451,-4.96542 -11.1346,0.009 -18.6458,7.6605 -18.6542,19.0031 -0.017,22.81885 32.8374,25.81589 37.4906,3.41999 0.9408,-4.52795 1.1433,-4.67375 9.3795,-6.75231 23.9168,-6.03589 58.561,-6.28451 80.4064,-0.57705 32.5437,8.50263 57.0544,27.47584 70.7572,54.77174 5.9792,11.91051 6.5145,14.73423 3.1357,16.54245 -5.4657,2.92513 -8.082,16.17751 -4.5384,22.98812 2.3488,4.51452 7.0238,8.67976 11.2255,10.00163 4.7633,1.49855 12.5977,0.39834 16.3014,-2.28925 z"
         id="path1110" />
      <path
         style="fill:#fefefe;stroke-width:1.21827"
         d="m 1037.9695,844.36516 c 5.2622,-3.71933 8.5279,-9.70479 8.5279,-15.63027 0,-6.21636 -2.9202,-13.23067 -6.2502,-15.01281 -3.3786,-1.80821 -2.8434,-4.63193 3.1358,-16.54244 13.7107,-27.31155 37.9135,-46.03914 70.7286,-54.72824 21.7551,-5.7605 56.406,-5.53065 80.435,0.53355 8.2362,2.07856 8.4387,2.22436 9.3795,6.75231 2.0355,9.79685 9.0839,15.34338 19.4865,15.33429 10.4002,-0.009 17.9995,-7.97957 17.9995,-18.87869 0,-11.20913 -7.568,-18.87009 -18.6496,-18.87869 -6.1342,-0.005 -9.53,1.23096 -13.6451,4.96542 -2.3839,2.16337 -2.8855,2.14016 -17.0558,-0.7893 -58.2652,-12.04529 -114.0334,2.83522 -143.9096,38.39911 -7.279,8.66466 -17.041,25.53137 -19.7884,34.19014 -1.1486,3.62017 -2.299,4.61655 -7.437,6.44141 -13.6935,4.86349 -16.7599,22.01916 -5.7702,32.28291 5.7538,5.3737 16.3893,6.10158 22.8131,1.5613 z"
         id="path1108" />
      <path
         style="fill:#fefefe;stroke-width:1.21827"
         d="m 1383.7153,914.43043 c 6.5229,-3.39389 9.1903,-7.54648 9.7414,-15.16553 0.3736,-5.16463 -0.066,-8.21637 -1.6109,-11.20545 l -2.1242,-4.10783 6.9055,-6.42757 c 8.5142,-7.92502 23.5502,-15.35725 36.3163,-17.95116 12.4759,-2.5349 12.429,-2.54258 14.187,2.31912 1.824,5.04419 6.1045,8.6614 12.5269,10.58557 9.4965,2.84525 20.0335,-3.27208 23.0652,-13.39075 2.9609,-9.8829 -2.9675,-20.34394 -13.2804,-23.43375 -7.2383,-2.16864 -13.8238,0.0496 -20.4801,6.89835 -4.3421,4.46785 -5.9896,5.37034 -9.8303,5.38532 -14.8306,0.0579 -38.0095,10.26506 -51.3426,22.60947 -7.3653,6.81913 -9.0643,7.82938 -13.1672,7.82938 -18.3245,0 -25.4525,24.58385 -10.1556,35.02538 4.7101,3.21503 14.0847,3.7164 19.249,1.02945 z"
         id="path1106" />
      <path
         style="fill:#fefefe;stroke-width:1.21827"
         d="m 1315.7366,913.40098 c 15.3106,-10.45086 8.1669,-35.02538 -10.1817,-35.02538 -4.1028,0 -5.7705,-0.9669 -12.4587,-7.22337 -13.3778,-12.51424 -31.2179,-20.77972 -49.8196,-23.08172 -6.0884,-0.75345 -9.9119,-1.80273 -10.2365,-2.8092 -0.285,-0.88359 -2.3574,-3.35527 -4.6054,-5.49262 -8.8848,-8.44733 -23.6708,-5.5922 -29.3485,5.66708 -1.5076,2.98969 -2.7411,6.84815 -2.7411,8.57435 0,6.02698 5.0666,13.80057 10.9181,16.75126 2.9896,1.50762 6.8481,2.74112 8.5743,2.74112 5.747,0 13.8062,-5.07432 16.4467,-10.35533 1.3401,-2.6802 2.5688,-5.09676 2.7305,-5.37013 0.1617,-0.27337 5.0957,0.43952 10.9645,1.58417 13.944,2.71969 28.6249,9.81197 37.5966,18.16284 l 6.9055,6.42757 -2.1242,4.10783 c -2.8197,5.45262 -2.1171,17.10309 1.2604,20.90177 6.7929,7.6398 18.5125,9.63192 26.1191,4.43976 z"
         id="path1104" />
      <path
         style="fill:#fefefe;stroke-width:1.21827"
         d="m 1802.9083,933.29567 c 2.1059,-1.49951 4.695,-4.40127 5.7535,-6.44836 2.1212,-4.10177 2.502,-14.34975 0.6559,-17.6485 -0.8899,-1.5902 -0.032,-4.19598 3.5138,-10.67662 2.5801,-4.71514 6.1612,-13.507 7.958,-19.53746 4.3663,-14.65393 4.6527,-37.37323 0.6595,-52.3151 -5.6022,-20.96192 -17.5478,-38.52888 -32.7712,-48.19251 -6.7503,-4.28489 -8.6521,-6.13096 -8.7079,-8.45253 -0.091,-3.80933 -4.5054,-10.25508 -8.7317,-12.75161 -1.927,-1.13826 -6.0383,-1.94306 -9.9263,-1.94306 -7.9554,0 -13.8286,3.36633 -17.0461,9.77047 -9.4601,18.8292 14.2583,36.91294 30.1332,22.97458 l 4.1947,-3.68299 5.2208,3.62676 c 29.6382,20.58863 38.9033,68.63449 20.0922,104.19089 -3.7492,7.08651 -3.805,7.12941 -8.4522,6.50608 -14.054,-1.88504 -24.9045,9.22245 -22.3437,22.87275 0.9647,5.14255 5.9646,11.33744 10.9911,13.61812 5.1366,2.33063 14.1336,1.41647 18.8064,-1.91091 z"
         id="path1102" />
      <path
         style="fill:#fefefe;stroke-width:1.21827"
         d="m 898.79715,933.59734 c 6.20825,-4.63513 8.20788,-8.59083 8.20788,-16.23697 0,-12.00858 -7.53515,-18.94053 -20.20688,-18.58932 l -6.93043,0.1921 -3.68104,-6.94353 c -6.9412,-13.09316 -9.3902,-23.54245 -9.3366,-39.83692 0.0898,-27.30115 9.4244,-48.39919 27.68842,-62.5815 l 7.02184,-5.45258 3.33148,3.17812 c 15.83219,15.10338 40.8144,-2.7822 31.04533,-22.22635 -3.32019,-6.60839 -9.0482,-9.77047 -17.69898,-9.77047 -6.98285,0 -7.51386,0.22407 -12.61172,5.32193 -3.59995,3.59995 -5.32193,6.36417 -5.32193,8.54305 0,2.59098 -1.3704,4.09548 -7.00508,7.69063 -36.80046,23.48019 -48.80976,79.81955 -25.92808,121.63666 3.5461,6.48064 4.40369,9.08642 3.51378,10.67662 -1.84609,3.29875 -1.46523,13.54673 0.65588,17.6485 1.81051,3.50116 6.36966,7.49633 10.48939,9.19184 3.46717,1.42694 13.55215,-0.0418 16.76674,-2.44181 z"
         id="path1100" />
      <path
         style="fill:#fefefe;stroke-width:1.21827"
         d="m 1667.7816,943.57164 c 5.8935,-3.04762 9.1584,-8.85162 9.2778,-16.4932 0.1035,-6.61507 0.2328,-6.85029 7.6625,-13.93708 14.9631,-14.27246 28.5943,-34.99853 35.415,-53.84852 11.3474,-31.35995 12.0232,-69.09905 1.7855,-99.71788 -11.7959,-35.27984 -34.8236,-61.89159 -65.3438,-75.51408 -5.8249,-2.59995 -8.1978,-4.31019 -8.221,-5.9255 -0.066,-4.58819 -5.28,-11.7032 -10.3879,-14.17591 -6.5403,-3.1661 -11.1965,-3.07776 -17.6499,0.33482 -7.234,3.82542 -10.0401,9.24551 -9.4526,18.2573 0.3924,6.01749 1.0485,7.62826 4.6001,11.29257 7.6242,7.86612 18.7712,8.33888 26.6377,1.12976 l 4.3277,-3.966 9.1693,4.61089 c 22.7461,11.43791 38.4254,28.17592 50.6589,54.0795 24.1981,51.23739 12.5639,114.7567 -28.3167,154.601 l -7.2235,7.04047 -4.7653,-1.99105 c -5.8737,-2.4542 -14.1931,-1.7377 -18.6834,1.60908 -10.8328,8.07385 -10.5354,24.75945 0.5716,32.08173 4.3311,2.85524 14.9001,3.13731 19.938,0.5321 z"
         id="path1098" />
      <path
         style="fill:#fefefe;stroke-width:1.21827"
         d="m 1032.0789,943.24869 c 11.2858,-6.64236 11.7483,-24.1697 0.8521,-32.29088 -4.491,-3.34725 -12.8098,-4.06328 -18.6853,-1.60833 l -4.7671,1.99182 -7.7614,-7.65036 c -30.20627,-29.7742 -45.00244,-73.16646 -39.19248,-114.93849 5.83376,-41.94315 28.80087,-76.40103 62.07608,-93.13364 l 9.1694,-4.61089 4.3277,3.966 c 5.0516,4.62945 11.3222,6.15278 17.9646,4.36417 5.1109,-1.37624 10.7852,-6.27058 12.5071,-10.78799 1.7762,-4.6601 1.2184,-12.78775 -1.1853,-17.26974 -2.5602,-4.77379 -10.8572,-9.75755 -16.2445,-9.75755 -8.4736,0 -17.5485,7.05574 -18.8031,14.61929 -0.6422,3.87207 -1.4514,4.59986 -8.804,7.91878 -40.36915,18.2223 -67.27355,58.90566 -71.92906,108.76721 -4.2605,45.63087 12.17014,90.35594 44.38472,120.81758 6.82314,6.45187 7.02794,6.83278 7.20544,13.40101 0.2077,7.68688 2.8009,12.57019 8.5307,16.06431 4.8554,2.96094 15.4359,3.03251 20.3544,0.1377 z"
         id="path1096" />
      <path
         style="fill:#fefefe;stroke-width:1.21827"
         d="m 1486.1929,980.73971 c 2.2806,-0.65404 5.4734,-2.43577 7.0953,-3.95939 2.75,-2.58341 4.0717,-2.78096 19.6019,-2.92966 14.156,-0.13553 18.2618,-0.6401 27.3829,-3.3652 18.9844,-5.67194 31.9406,-13.58841 45.3115,-27.68605 12.5849,-13.26873 21.319,-31.70139 21.319,-44.99183 0,-3.53521 0.6111,-4.70004 3.0485,-5.81057 7.4448,-3.39211 10.68,-18.5416 5.6038,-26.24115 -7.128,-10.81166 -22.8133,-11.73303 -31.1464,-1.82959 -8.0923,9.61707 -3.4631,26.34404 8.3717,30.24985 l 4.0299,1.33002 -1.1176,6.35858 c -2.4199,13.7665 -13.6784,31.57627 -26.3239,41.64164 -18.0504,14.36749 -44.5661,22.54602 -63.7634,19.66721 -5.161,-0.77393 -5.4947,-1.07111 -6.8364,-6.08728 -3.0134,-11.26666 -15.2479,-16.80205 -26.3157,-11.90623 -7.3748,3.26223 -10.516,8.41682 -10.516,17.25645 0,8.6043 3.154,13.96187 10.0668,17.09991 5.8787,2.66863 8.3484,2.87809 14.1881,1.20329 z"
         id="path1094" />
      <path
         style="fill:#fefefe;stroke-width:1.21827"
         d="m 1208.5464,979.18777 c 6.8012,-3.44732 10.0088,-8.81569 10.0088,-16.75126 0,-8.1289 -3.1811,-13.31088 -10.3667,-16.88745 -4.6747,-2.32676 -6.8368,-2.71892 -11.3,-2.04962 -7.3202,1.09772 -13.5814,6.58058 -15.4368,13.51764 -1.5905,5.94674 -3.2996,6.65261 -16.0203,6.61655 -30.3236,-0.086 -62.3573,-19.4419 -74.9399,-45.28154 -2.7127,-5.57083 -5.4199,-12.99014 -6.0159,-16.48737 l -1.0838,-6.35858 4.03,-1.33002 c 11.8347,-3.90581 16.464,-20.63278 8.3718,-30.24985 -8.3332,-9.90344 -24.0185,-8.98207 -31.1465,1.82959 -5.0762,7.69955 -1.841,22.84904 5.6038,26.24115 2.4374,1.11053 3.0485,2.27536 3.0485,5.81057 0,6.9072 3.3047,17.91231 8.2156,27.35924 3.2332,6.21958 7.7459,11.89705 16.1075,20.26498 9.83,9.83733 13.3956,12.51013 23.1896,17.38305 16.795,8.35615 27.5582,10.84912 46.9036,10.86383 15.0779,0.011 15.9897,0.15394 19.0103,2.97074 6.0593,5.65042 13.8846,6.56075 21.8204,2.53835 z"
         id="path1092" />
      <path
         style="fill:#fefefe;stroke-width:1.21827"
         d="m 1674.2772,1000.6836 c 32.3164,-7.20897 60.3669,-32.81094 70.7806,-64.60241 1.6944,-5.17236 2.6362,-6.37134 5.4473,-6.93353 4.9887,-0.99776 10.7078,-6.95326 12.2784,-12.78616 5.165,-19.1813 -17.7614,-32.63482 -31.7594,-18.63685 -7.986,7.98602 -7.9168,18.88525 0.1713,26.97337 4.7406,4.7406 4.7567,4.78931 3.1165,9.43804 -5.1327,14.54775 -15.67,29.53692 -27.2154,38.71347 -8.0239,6.37768 -26.1011,15.45697 -34.949,17.55316 -8.0458,1.90619 -24.3422,1.78101 -31.1324,-0.23914 l -5.4822,-1.63102 -0.6173,-6.87823 c -0.9909,-11.04239 -8.2098,-17.99339 -18.691,-17.99763 -10.5301,-0.004 -17.9669,6.95849 -18.7459,17.55145 -0.8627,11.72808 6.7745,20.21318 18.1933,20.21318 3.2845,0 7.5857,-0.8346 9.5583,-1.85471 3.1834,-1.64616 4.2382,-1.65254 9.3811,-0.0568 8.5916,2.66581 9.7646,2.83451 20.7825,2.98841 5.5632,0.078 14.0606,-0.7389 18.8833,-1.8146 z"
         id="path1090" />
      <path
         style="fill:#fefefe;stroke-width:1.21827"
         d="m 1045.4867,999.65187 c 5.1981,-1.87136 6.0087,-1.88341 9.3811,-0.13947 5.5474,2.8687 14.7978,2.468 19.7743,-0.85652 10.7495,-7.18112 11.1535,-24.18317 0.7508,-31.5906 -5.066,-3.60728 -14.7638,-4.25089 -20.281,-1.34599 -6.1576,3.24207 -9.1129,8.01487 -9.8246,15.86667 -0.6039,6.66241 -0.7228,6.84745 -5.4904,8.54577 -6.7087,2.38976 -23.8359,2.25681 -33.5025,-0.26007 -15.32212,-3.9894 -34.80647,-16.17527 -44.20785,-27.64842 C 956.08586,954.90019 949.52218,943.77704 946.61242,936 l -2.42515,-6.48178 4.79271,-4.7927 c 8.11658,-8.11659 8.19675,-19.00295 0.19883,-27.00087 -10.62092,-10.62092 -27.85717,-6.03982 -31.75626,8.44027 -2.62957,9.7655 3.3497,21.19762 11.99078,22.92584 3.14286,0.62857 3.98372,1.65408 5.73172,6.99043 10.18375,31.08929 37.15453,56.18181 69.11875,64.30531 10.9441,2.7813 32.5246,2.3968 41.2229,-0.73463 z"
         id="path1088" />
      <path
         style="fill:#fefefe;stroke-width:1.21827"
         d="m 1352.4506,1135.9545 c 7.4106,-3.8322 11.2611,-14.2751 8.4285,-22.8582 -1.5105,-4.5768 -8.653,-11.7766 -11.683,-11.7766 -1.5584,0 -1.785,-19.6219 -1.785,-154.60132 V 792.11702 l 4.5685,-2.35913 c 5.4752,-2.82733 10.0028,-10.16971 10.0307,-16.26682 0.028,-6.15094 -4.6625,-14.39734 -9.7374,-17.11911 -18.8601,-10.11476 -37.9902,13.08903 -23.9626,29.06543 2.0468,2.33133 4.989,4.72065 6.5381,5.30961 l 2.8165,1.07083 v 154.75096 c 0,141.04291 -0.1726,154.75091 -1.9492,154.75091 -3.1132,0 -9.8586,7.6028 -11.4458,12.9009 -3.846,12.8364 7.5162,26.0778 20.6625,24.08 2.322,-0.3528 5.7053,-1.4086 7.5182,-2.3461 z"
         id="path1086" />
      <path
         style="fill:#fefefe;stroke-width:1.21827"
         d="m 1382.7875,1241.1167 c 5.8496,-2.9498 10.9427,-10.7614 10.8912,-16.7049 -0.047,-5.4882 -4.4685,-13.3067 -9.0543,-16.0124 l -4.3199,-2.5488 0.035,-20.2857 c 0.055,-31.5554 2.1433,-96.6838 3.6192,-112.8746 6.7732,-74.30607 23.8421,-118.37417 56.4604,-145.76942 14.062,-11.81025 38.4463,-21.87454 57.1736,-23.59759 7.5153,-0.69147 7.6068,-0.66209 10.021,3.21755 3.8981,6.26399 8.0671,8.66412 15.0495,8.66412 20.3255,0 27.5805,-26.10297 9.835,-35.38616 -9.8918,-5.17469 -22.7426,-1.27954 -26.6141,8.06684 -1.3984,3.37608 -2.0567,3.64615 -12.298,5.04569 -5.9512,0.81327 -16.8698,3.54626 -24.2635,6.0733 -42.9306,14.67297 -70.0538,47.97018 -84.7532,104.04537 -9.1844,35.0363 -12.6708,69.3988 -13.4935,132.9906 -0.7926,61.2664 -1.3078,69.7505 -4.2936,70.6982 -4.191,1.3301 -9.4343,6.6555 -10.887,11.0573 -2.4025,7.2796 -0.5041,14.9539 4.9927,20.1827 6.7906,6.4598 13.4261,7.4106 21.899,3.1379 z"
         id="path1084" />
      <path
         style="fill:#fefefe;stroke-width:1.21827"
         d="m 1318.1502,1239.1398 c 9.1717,-7.4228 9.6556,-20.3102 1.0692,-28.4782 -2.6423,-2.5137 -5.5223,-4.5703 -6.3999,-4.5703 -2.2966,0 -3.1569,-14.1732 -3.1793,-52.3858 -0.073,-124.2805 -15.6375,-189.10653 -54.7068,-227.8515 -18.0785,-17.92831 -40.5632,-28.70679 -68.5797,-32.87495 -9.9111,-1.47453 -10.6699,-1.79686 -12.0451,-5.11703 -5.4488,-13.15445 -27.5142,-13.78479 -34.2185,-0.97751 -7.7238,14.75492 4.3982,31.06146 20.8537,28.05236 5.3751,-0.98292 13.4724,-7.45934 13.4724,-10.7756 0,-2.46836 12.5604,-1.06957 26.4677,2.94754 53.1264,15.34553 82.3268,60.34796 92.8157,143.04339 3.3724,26.589 4.7781,53.0829 5.7247,107.8989 l 0.8218,47.5944 -4.4937,2.6514 c -4.7612,2.8091 -9.1798,10.5255 -9.2282,16.1149 -0.015,1.7008 1.2067,5.5383 2.7143,8.528 5.5136,10.9336 19.3868,13.9086 28.9117,6.2 z"
         id="path1082" />
      <path
         style="fill:#fefefe;stroke-width:1.21827"
         d="m 1511.5846,1247.5192 c 12.3322,-7.5191 11.7808,-26.8069 -0.949,-33.2026 -7.6381,-3.8375 -19.8864,-1.6779 -23.5245,4.1478 -1.9829,3.1749 -3.7749,2.8458 -12.1249,-2.2265 -18.3271,-11.1332 -35.7265,-33.0492 -42.2753,-53.2495 -1.488,-4.5897 -1.4248,-4.8116 2.1735,-7.6276 4.6579,-3.6455 8.1136,-12.3006 7.0849,-17.7448 -2.0333,-10.7602 -11.7217,-17.8104 -22.296,-16.2246 -10.5014,1.5747 -17.5838,12.2406 -15.5007,23.344 0.9481,5.0546 8.9037,13.8432 12.531,13.8432 2.9454,0 4.2329,1.7805 6.167,8.5279 4.0465,14.1167 16.0719,33.0225 28.4521,44.7312 7.1586,6.7703 21.8435,16.7733 27.5385,18.7586 2.5437,0.8868 3.7116,2.2676 4.2671,5.0455 1.7756,8.8783 8.7483,14.2982 18.3945,14.2982 3.9339,0 7.4976,-0.8574 10.0618,-2.4208 z"
         id="path1080" />
      <path
         style="fill:#fefefe;stroke-width:1.21827"
         d="m 1188.742,1247.5192 c 4.506,-2.7473 8.8101,-9.0856 8.8168,-12.9839 0,-1.8135 1.1269,-3.0131 3.6448,-3.8909 5.8171,-2.0278 20.4464,-11.9687 27.6766,-18.8067 12.5315,-11.8518 21.4854,-25.7906 28.3114,-44.0733 2.3821,-6.3803 3.8398,-8.6421 5.8891,-9.1371 4.5936,-1.1095 10.9466,-7.0601 12.4718,-11.6818 3.6999,-11.2108 -3.7374,-23.8618 -15.0229,-25.5541 -10.5743,-1.5858 -20.2627,5.4644 -22.296,16.2246 -1.0287,5.4442 2.427,14.0993 7.0849,17.7448 3.5983,2.816 3.6615,3.0379 2.1735,7.6276 -6.5488,20.2003 -23.9482,42.1163 -42.2753,53.2495 -8.35,5.0723 -10.142,5.4014 -12.1248,2.2265 -2.0096,-3.2179 -9.1314,-6.282 -14.5959,-6.2798 -10.76,0 -18.7025,7.9733 -18.6946,18.757 0.01,11.4483 7.511,18.9984 18.8787,18.9984 3.934,0 7.4977,-0.8574 10.0619,-2.4208 z"
         id="path1078" />
      <path
         style="fill:#fefefe;stroke-width:1.21827"
         d="m 1440.0058,1306.5959 c 2.4344,-1.2589 3.7721,-3.0697 4.2843,-5.7995 1.9328,-10.3029 -6.7533,-16.6345 -14.4812,-10.5557 -2.5899,2.0372 -3.21,3.5499 -3.21,7.8303 0,4.2804 0.6201,5.7931 3.21,7.8303 3.8232,3.0075 5.5031,3.1219 10.1969,0.6946 z"
         id="path1076" />
      <path
         style="fill:#fefefe;stroke-width:1.21827"
         d="m 1049.4822,1304.7218 c 6.1125,-6.0021 0.039,-18.159 -8.2451,-16.5022 -4.849,0.9697 -6.605,2.5872 -7.5677,6.9703 -2.2642,10.3088 8.4463,16.765 15.8128,9.5319 z"
         id="path1074" />
      <path
         style="fill:#fefefe;stroke-width:1.21827"
         d="m 1443.6547,1351.6751 v -34.7208 h -7.9187 -7.9188 v 34.7208 34.7208 h 7.9188 7.9187 z"
         id="path1072" />
      <path
         style="fill:#fefefe;stroke-width:1.21827"
         d="m 1410.7613,1335.2284 v -51.1675 h -8.5279 -8.5279 v 51.1675 51.1675 h 8.5279 8.5279 z"
         id="path1070" />
      <path
         style="fill:#fefefe;stroke-width:1.21827"
         d="m 1313.2994,1367.4429 c 0,-10.424 0.6099,-21.3751 1.3554,-24.3355 1.7756,-7.0515 5.9607,-11.5339 10.7692,-11.5339 h 3.713 v -8.5279 c 0,-7.7846 -0.2177,-8.5279 -2.4971,-8.5279 -3.9497,0 -9.46,3.3835 -11.4334,7.0204 l -1.8095,3.3349 -0.049,-3.9594 -0.049,-3.9593 h -7.9187 -7.9188 v 34.7208 34.7208 h 7.9188 7.9187 v -18.953 z"
         id="path1068" />
      <path
         style="fill:#fefefe;stroke-width:1.21827"
         d="m 1084.2639,1363.328 c 0,-12.6874 0.5263,-24.4522 1.1696,-26.1443 3.0432,-8.0041 10.5392,-10.5437 14.2781,-4.8373 1.7739,2.7073 2.1832,7.1873 2.616,28.6295 l 0.5131,25.42 h 7.8656 7.8656 l -0.4047,-28.3249 c -0.3681,-25.7638 -0.6375,-28.8285 -2.9794,-33.8948 -5.1011,-11.0354 -18.1443,-12.8663 -27.5736,-3.8708 l -3.3503,3.1961 v -3.2736 c 0,-3.2409 -0.085,-3.2736 -8.5279,-3.2736 h -8.5279 v 34.7208 34.7208 h 8.5279 8.5279 z"
         id="path1066" />
      <path
         style="fill:#fefefe;stroke-width:1.21827"
         d="m 1050.1522,1351.6751 v -34.7208 h -7.9188 -7.9187 v 34.7208 34.7208 h 7.9187 7.9188 z"
         id="path1064" />
      <path
         style="fill:#fefefe;stroke-width:1.21827"
         d="m 1603.617,1372.8992 c -4.3114,-1.6054 -6.8334,-8.0361 -7.4279,-18.9397 -0.7897,-14.4835 3.4193,-24.8225 10.1052,-24.8225 6.6952,0 10.8864,10.3238 10.1199,24.9271 -0.758,14.4435 -5.5703,21.5262 -12.7972,18.8351 z"
         id="path1062" />
      <path
         style="fill:#fefefe;stroke-width:1.21827"
         d="m 1613.0885,1384.053 3.5612,-3.5611 v 2.952 c 0,2.821 0.3513,2.952 7.9187,2.952 h 7.9188 v -51.1675 -51.1675 h -7.9188 -7.9187 v 19.6567 19.6566 l -2.4556,-3.1217 c -4.9656,-6.3127 -16.0107,-7.1481 -23.548,-1.781 -1.9512,1.3893 -4.9849,5.591 -6.7416,9.337 -2.9523,6.2955 -3.1939,8.0548 -3.1939,23.2574 0,15.8376 0.1353,16.7174 3.6548,23.7564 4.7254,9.451 9.5698,12.7919 18.548,12.7919 5.6859,0 7.1137,-0.4998 10.1751,-3.5612 z"
         id="path1060" />
      <path
         style="fill:#fefefe;stroke-width:1.21827"
         d="m 1541.1167,1374.5859 c -5.6475,-2.0183 -6.7608,-11.9968 -1.8829,-16.8749 2.2978,-2.2977 4.2729,-2.9902 8.5279,-2.9902 5.1698,0 5.5377,0.2132 5.5377,3.2089 0,5.5736 -2.7617,12.7076 -5.8642,15.1479 -3.1553,2.4821 -3.4184,2.5448 -6.3185,1.5083 z"
         id="path1058" />
      <path
         style="fill:#fefefe;stroke-width:1.21827"
         d="m 1547.1946,1385.7937 c 1.9362,-1.0012 4.376,-3.042 5.4217,-4.535 1.8913,-2.7001 1.9014,-2.6936 1.9014,1.2113 v 3.9259 h 6.8162 6.8163 l -0.4203,-27.7158 c -0.4083,-26.9231 -0.5074,-27.8707 -3.466,-33.1357 -1.6752,-2.981 -4.738,-6.4055 -6.8064,-7.6102 -8.115,-4.7265 -20.0516,-3.9763 -28.6442,1.8004 -5.2984,3.5621 -5.5919,6.5499 -1.1493,11.7047 l 3.5591,4.1297 3.8219,-3.216 c 6.4471,-5.4249 14.4609,-3.988 16.908,3.0314 2.2861,6.5578 1.9035,7.1536 -4.5918,7.1536 -11.342,0 -20.6561,5.0533 -24.0665,13.0574 -2.3606,5.5398 -2.1196,17.1071 0.4635,22.2483 4.3086,8.5757 15.1287,12.2461 23.4364,7.95 z"
         id="path1056" />
      <path
         style="fill:#fefefe;stroke-width:1.21827"
         d="m 1480.5786,1372.8955 c -5.1068,-1.8892 -6.9706,-6.7269 -7.4802,-19.4148 -0.3984,-9.919 -0.077,-12.7086 2.0082,-17.4222 3.9015,-8.8198 11.0682,-9.0426 15.7436,-0.4895 3.0603,5.5985 3.0315,25.2894 -0.046,31.4702 -2.528,5.0773 -6.3754,7.2807 -10.2256,5.8563 z"
         id="path1054" />
      <path
         style="fill:#fefefe;stroke-width:1.21827"
         d="m 1486.6789,1386.2533 c 1.4637,-0.7485 3.6083,-2.5302 4.7661,-3.9593 l 2.1048,-2.5986 0.027,3.3502 c 0.027,3.3085 0.1258,3.3503 7.9458,3.3503 h 7.9188 v -51.1675 -51.1675 h -7.9188 -7.9188 v 19.6567 19.6566 l -2.5018,-3.1807 c -5.3958,-6.8595 -17.4555,-7.1839 -24.8754,-0.6692 -6.6163,5.8094 -9.5237,14.9855 -9.6075,30.3234 -0.093,16.9309 2.3926,25.4239 9.5269,32.5582 4.7961,4.796 5.7094,5.2083 11.5401,5.2083 3.4824,0 7.5292,-0.6125 8.9927,-1.3609 z"
         id="path1052" />
      <path
         style="fill:#fefefe;stroke-width:1.21827"
         d="m 1349.7057,1373.125 c -2.17,-1.7571 -2.8483,-3.529 -2.8483,-7.439 0,-7.0074 4.4507,-10.9652 12.3309,-10.9652 h 5.5498 l -0.8057,4.5685 c -1.5691,8.8961 -3.2879,12.5114 -6.816,14.3359 -4.3377,2.2431 -3.9942,2.2662 -7.4107,-0.5002 z"
         id="path1050" />
      <path
         style="fill:#fefefe;stroke-width:1.21827"
         d="m 1357.6811,1385.9009 c 2.2553,-0.9423 4.688,-2.7241 5.4061,-3.9594 1.1587,-1.9935 1.3098,-1.8692 1.3427,1.1041 0.036,3.2481 0.2434,3.3503 6.8002,3.3503 h 6.763 l -0.3671,-28.3249 c -0.4084,-31.5058 -1.2731,-35.4555 -8.7579,-40.0074 -8.7142,-5.2994 -22.6901,-3.9049 -30.7577,3.069 l -4.6004,3.9767 3.9525,4.9905 3.9526,4.9904 4.3863,-2.9766 c 8.3438,-5.6623 17.4473,-2.1315 17.4473,6.767 0,3.2114 -0.2664,3.3452 -7.8703,3.9555 -9.9983,0.8026 -17.6983,5.0589 -20.8744,11.5385 -3.2899,6.7115 -3.0424,19.2259 0.4931,24.9466 4.6588,7.5381 13.9441,10.2315 22.684,6.5797 z"
         id="path1048" />
      <path
         style="fill:#fefefe;stroke-width:1.21827"
         d="m 1278.5786,1384.441 4.8731,-2.5454 0.3327,-21.5062 0.3326,-21.5062 h -11.6016 -11.6018 v 6.7005 6.7005 h 4.9224 4.9224 l -0.3539,10.0084 -0.3538,10.0083 -4.5577,1.0746 c -10.5573,2.4891 -18.1071,-7.8639 -18.9752,-26.0207 -1.1298,-23.6333 9.0845,-36.948 22.8742,-29.817 1.9163,0.991 3.7764,2.4986 4.1335,3.3503 0.7379,1.7599 9.3171,-6.9976 9.3171,-9.5107 0,-2.379 -6.9248,-7.6026 -11.9161,-8.9888 -11.0875,-3.0793 -21.7621,-0.364 -29.1383,7.4118 -14.6685,15.4635 -14.6685,53.6666 0,69.13 6.2993,6.6407 12.1826,8.8117 22.7803,8.4059 6.362,-0.2436 10.617,-1.1229 14.0101,-2.8953 z"
         id="path1046" />
      <path
         style="fill:#fefefe;stroke-width:1.21827"
         d="m 1184.7943,1339.7969 c 1.111,-5.3287 3.7558,-9.2727 7.3014,-10.8882 4.1047,-1.8702 8.6325,1.3126 10.2735,7.2218 2.1348,7.6871 2.2035,7.6258 -8.5574,7.6258 h -9.843 z"
         id="path1044" />
      <path
         style="fill:#fefefe;stroke-width:1.21827"
         d="m 1208.1615,1384.4359 c 3.6833,-2.729 8.8943,-9.7309 8.8943,-11.9512 0,-0.7525 -2.4131,-2.6863 -5.3625,-4.2975 l -5.3625,-2.9294 -4.223,4.4777 c -4.719,5.0036 -5.6329,5.2374 -10.5453,2.697 -3.4588,-1.7887 -7.4001,-9.2885 -7.4001,-14.0815 0,-2.2939 0.8729,-2.412 17.8401,-2.412 h 17.8402 l -0.7927,-9.4416 c -1.4456,-17.2164 -5.0091,-24.5826 -14.1868,-29.3256 -10.0274,-5.1819 -22.4537,-2.0672 -29.2648,7.3351 -4.9934,6.8933 -7.2736,15.4189 -7.2736,27.1957 0,16.3485 5.2061,28.5185 14.3117,33.4561 6.2722,3.4011 20.5028,2.9981 25.525,-0.7228 z"
         id="path1042" />
      <path
         style="fill:#fefefe;stroke-width:1.21827"
         d="m 1159.4923,1386.8463 c 2.4207,-0.6488 2.7411,-1.5167 2.7411,-7.425 0,-6.6084 -0.039,-6.6807 -3.1889,-5.8902 -2.1817,0.5475 -3.9133,0.1449 -5.4822,-1.275 -2.0674,-1.8709 -2.2933,-4.0372 -2.2933,-21.9881 v -19.9127 h 5.4822 5.4822 v -6.7005 -6.7005 h -5.4822 -5.4822 v -8.528 -8.5279 h -7.9188 -7.9188 v 8.5279 8.528 h -4.2639 -4.264 v 6.7005 6.7005 h 4.264 4.2639 l 0.069,21.6243 c 0.043,13.403 0.6216,23.2295 1.5229,25.8462 2.6584,7.7185 12.5339,11.6831 22.4693,9.0205 z"
         id="path1040" />
      <path
         style="fill:#fefefe;stroke-width:1.21827"
         d="m 1566.7004,1554.7643 c 0,-1.4514 13.3718,-92.0546 13.7681,-93.2886 0.1876,-0.5843 3.2423,18.8776 6.7881,43.2487 3.5458,24.3711 6.7444,45.8187 7.1078,47.6613 l 0.6609,3.3503 h -14.1624 c -7.7893,0 -14.1625,-0.4373 -14.1625,-0.9717 z"
         id="path1038" />
      <path
         style="fill:#fefefe;stroke-width:1.21827"
         d="m 1553.6631,1617.9613 c 1.6273,-0.6188 3.3373,-2.1112 3.7998,-3.3164 0.7144,-1.8618 4.3644,-26.8918 4.3644,-29.9292 0,-0.5626 8.3535,-0.8716 18.5632,-0.6865 l 18.5632,0.3362 0.8147,6.0914 c 0.4481,3.3502 1.1832,9.7839 1.6335,14.2972 1.2732,12.7621 2.4353,13.6362 18.7926,14.1355 7.4311,0.2267 13.511,-0.076 13.511,-0.673 0,-0.5968 -2.4406,-16.6809 -5.4236,-35.7422 -2.983,-19.0614 -9.3175,-60.0763 -14.0767,-91.1441 -4.7593,-31.0678 -9.5135,-58.6371 -10.565,-61.265 -3.1034,-7.7563 -6.4785,-8.8548 -28.7164,-9.347 -10.5533,-0.2337 -19.1878,-0.163 -19.1878,0.1568 0,1.0308 -30.4536,191.3913 -31.1736,194.861 l -0.6952,3.3502 h 13.4185 c 7.3802,0 14.75,-0.5062 16.3774,-1.1249 z"
         id="path1036" />
      <path
         style="fill:#fefefe;stroke-width:1.21827"
         d="m 1414.5716,1617.0725 c 1.3517,-1.6279 1.7887,-14.1085 2.2811,-65.1526 l 0.6092,-63.1391 10.2338,63.6299 c 5.6287,34.9964 10.4844,64.3151 10.7903,65.1527 0.4038,1.1052 4.6532,1.5228 15.4962,1.5228 h 14.9399 l 2.059,-13.7056 c 1.1325,-7.538 5.5273,-37.005 9.7664,-65.4822 l 7.7074,-51.7766 0.4426,63.7536 c 0.4264,61.4316 0.5287,63.8165 2.8073,65.4822 1.6799,1.2279 6.0026,1.7286 14.9239,1.7286 h 12.559 v -99.2893 -99.2893 h -17.4832 c -19.2103,0 -24.1319,1.0463 -26.1925,5.569 -0.7546,1.6562 -5.6145,31.5481 -10.7998,66.4264 -5.4604,36.7289 -9.7998,62.4798 -10.3115,61.1922 -0.4861,-1.2227 -3.6853,-20.0404 -7.1093,-41.8171 -10.1918,-64.8197 -13.2055,-82.3388 -14.7456,-85.7189 -2.0634,-4.5288 -7.3563,-5.6369 -26.9621,-5.6448 l -16.7513,-0.01 v 99.2893 99.2893 h 12.0336 c 9.7048,0 12.3571,-0.3897 13.7056,-2.0137 z"
         id="path1034" />
      <path
         style="fill:#fefefe;stroke-width:1.21827"
         d="m 1269.4416,1617.8943 c 1.5746,-0.995 1.9117,-10.183 2.4365,-66.4095 l 0.6091,-65.2547 9.5648,59.4229 c 5.2607,32.6827 10.1162,62.5754 10.7902,66.4281 l 1.2252,7.0051 h 14.9561 c 13.2224,0 15.0199,-0.2472 15.5058,-2.132 0.3024,-1.1725 4.8892,-31.7008 10.1929,-67.8405 l 9.6432,-65.7087 0.3066,66.3178 c 0.2805,60.6241 0.4835,66.4485 2.365,67.8406 1.348,0.9974 6.6015,1.5228 15.2262,1.5228 h 13.1682 v -99.3713 -99.3713 l -20.0709,0.3865 c -18.6487,0.3592 -20.2567,0.5725 -22.6913,3.0101 -2.3165,2.3195 -3.7262,10.0099 -12.1634,66.3576 -5.2487,35.0536 -9.7027,64.8476 -9.8977,66.2089 -0.1949,1.3612 -4.9264,-26.3068 -10.5144,-61.4844 -5.8358,-36.7372 -11.021,-65.7743 -12.1827,-68.2234 -2.5431,-5.3609 -4.3417,-5.7617 -26.6928,-5.9472 l -17.3604,-0.1441 v 99.2893 99.2893 l 11.8782,-0.018 c 6.533,-0.012 12.7005,-0.5383 13.7056,-1.1734 z"
         id="path1032" />
      <path
         style="fill:#fefefe;stroke-width:1.21827"
         d="m 1169.5761,1553.604 c 0.052,-3.337 13.0804,-90.5753 13.6054,-91.1003 0.2575,-0.2576 3.3727,19.655 6.9227,44.25 3.5499,24.5951 6.7174,45.6777 7.0389,46.8503 0.5322,1.9413 -0.6761,2.132 -13.5078,2.132 -12.6216,0 -14.0888,-0.2225 -14.0592,-2.132 z"
         id="path1030" />
      <path
         style="fill:#fefefe;stroke-width:1.21827"
         d="m 1156.5525,1617.9435 c 3.4615,-1.3161 5.13,-5.7319 6.2427,-16.5222 0.4146,-4.0204 1.0683,-9.6396 1.4526,-12.4874 l 0.6988,-5.1776 h 18.6018 18.6018 l 0.8635,9.4416 c 1.4022,15.3338 2.8539,21.4376 5.6499,23.7563 2.1164,1.7552 5.023,2.132 16.4459,2.132 10.2581,0 13.8898,-0.397 13.9311,-1.5228 0.03,-0.8376 -6.9562,-45.5714 -15.5265,-99.4084 l -15.5824,-97.8855 -19.5538,0.4236 c -22.07,0.478 -24.899,1.4092 -28.1861,9.2763 -1.5552,3.7222 -29.6066,180.7653 -29.6266,186.9848 -0.01,1.8803 1.35,2.132 11.4874,2.132 6.3219,0 12.8468,-0.5142 14.4999,-1.1427 z"
         id="path1028" />
      <path
         style="fill:#fefefe;stroke-width:1.21827"
         d="m 1100.8714,1618.1531 c 8.333,-3.1699 14.1657,-7.7904 18.5479,-14.6933 6.9381,-10.929 7.4842,-15.0942 7.4842,-57.082 v -38.1545 h -19.701 c -25.0374,0 -24.1569,-0.6065 -24.1569,16.6355 v 12.6031 h 6.7005 6.7005 v 21.4402 c 0,24.2606 -1.0083,28.3347 -7.6996,31.1082 -4.7025,1.9491 -11.5847,1.9048 -15.3285,-0.099 -1.5195,-0.8132 -3.8006,-3.7643 -5.069,-6.558 -2.157,-4.7507 -2.3075,-8.7834 -2.3262,-62.3382 -0.012,-35.3835 0.4565,-58.9743 1.2272,-61.7491 1.8442,-6.6402 7.3395,-10.7382 14.3993,-10.7382 11.7883,0 14.7968,5.2114 14.7968,25.631 v 14.7877 l 13.5015,-0.4124 c 17.745,-0.542 17.3023,0.034 16.6955,-21.7322 -0.4163,-14.934 -0.7768,-17.1467 -3.9191,-24.0579 -3.9927,-8.7812 -11.408,-16.2467 -19.9188,-20.0535 -8.105,-3.6252 -28.0862,-4.4771 -38.5537,-1.6437 -9.1855,2.4864 -18.2611,9.0528 -22.8583,16.5386 -6.9846,11.3732 -7.2141,14.2472 -6.8248,85.4832 l 0.3549,64.9513 2.9195,7.248 c 5.1352,12.7484 16.3719,22.1863 29.8607,25.0802 7.9404,1.7036 26.073,0.5033 33.1674,-2.1953 z"
         id="path1026" />
      <path
         style="fill:#abdde1;stroke-width:1.21827"
         d="m 1297.4619,1241.195 c -5.8944,-3.0314 -10.9891,-10.8488 -10.9377,-16.7832 0.049,-5.5894 4.467,-13.3058 9.2282,-16.1149 l 4.4937,-2.6514 -0.8218,-47.5944 c -0.9466,-54.816 -2.3523,-81.3099 -5.7247,-107.8989 -10.4889,-82.69543 -39.6893,-127.69786 -92.8157,-143.04339 -13.9073,-4.01711 -26.4677,-5.4159 -26.4677,-2.94754 0,3.31626 -8.0973,9.79268 -13.4724,10.7756 -16.4555,3.0091 -28.5775,-13.29744 -20.8537,-28.05236 6.7043,-12.80728 28.7697,-12.17694 34.2185,0.97751 1.3752,3.32017 2.134,3.6425 12.0451,5.11703 28.0165,4.16816 50.5012,14.94664 68.5797,32.87495 39.0693,38.74497 54.634,103.571 54.7068,227.8515 0.022,38.2126 0.8827,52.3858 3.1793,52.3858 0.8776,0 3.7576,2.0566 6.3999,4.5703 15.9597,15.1821 -2.161,40.6118 -21.7575,30.5334 z m 70.9206,1.7974 c -1.5317,-0.2937 -4.9041,-2.5497 -7.4941,-5.0136 -5.4968,-5.2288 -7.3952,-12.9031 -4.9926,-20.1827 1.4526,-4.4018 6.696,-9.7272 10.8869,-11.0573 2.9858,-0.9477 3.501,-9.4318 4.2936,-70.6982 0.8227,-63.5918 4.3092,-97.9543 13.4935,-132.9906 11.7286,-44.74211 32.3282,-76.14075 61.3317,-93.4839 12.2806,-7.34342 33.2669,-14.66445 47.6851,-16.63477 10.2413,-1.39954 10.8995,-1.66961 12.2979,-5.04569 3.8715,-9.34638 16.7223,-13.24153 26.6141,-8.06684 17.7455,9.28319 10.4906,35.38616 -9.835,35.38616 -6.9824,0 -11.1514,-2.40013 -15.0495,-8.66412 -2.4142,-3.87964 -2.5057,-3.90902 -10.021,-3.21755 -18.7273,1.72305 -43.1116,11.78734 -57.1736,23.59759 -32.6183,27.39525 -49.6872,71.46335 -56.4604,145.76942 -1.4758,16.1908 -3.5641,81.3192 -3.6192,112.8746 l -0.035,20.2857 4.3199,2.5488 c 4.5858,2.7057 9.0069,10.5242 9.0543,16.0124 0.015,1.7008 -1.2067,5.5383 -2.7143,8.528 -4.134,8.198 -12.598,11.9659 -22.5819,10.0526 z m -356.658,-299.88141 c -5.7298,-3.49412 -8.323,-8.37743 -8.5307,-16.06431 -0.1775,-6.56823 -0.3823,-6.94914 -7.20544,-13.40101 -32.21458,-30.46164 -48.64522,-75.18671 -44.38472,-120.81758 4.65551,-49.86155 31.55991,-90.54491 71.92906,-108.76721 7.3526,-3.31892 8.1618,-4.04671 8.804,-7.91878 1.2546,-7.56355 10.3295,-14.61929 18.8031,-14.61929 5.3873,0 13.6843,4.98376 16.2445,9.75755 2.4037,4.48199 2.9615,12.60964 1.1853,17.26974 -1.7219,4.51741 -7.3962,9.41175 -12.5071,10.78799 -6.6424,1.78861 -12.913,0.26528 -17.9646,-4.36417 l -4.3277,-3.966 -9.1694,4.61089 c -22.3388,11.23319 -38.28104,28.04794 -50.02218,52.75996 -24.85004,52.30279 -13.92291,114.838 27.13858,155.31217 l 7.7614,7.65036 4.7671,-1.99182 c 5.8755,-2.45495 14.1943,-1.73892 18.6853,1.60833 10.8962,8.12118 10.4337,25.64852 -0.8521,32.29088 -4.9185,2.89481 -15.499,2.82324 -20.3544,-0.1377 z m 636.1191,-0.0715 c -11.107,-7.32228 -11.4044,-24.00789 -0.5716,-32.08173 4.4903,-3.34678 12.8097,-4.06328 18.6834,-1.60908 l 4.7653,1.99105 7.2235,-7.04047 c 40.8806,-39.8443 52.5148,-103.36361 28.3167,-154.601 -12.2335,-25.90358 -27.9128,-42.64159 -50.6589,-54.0795 l -9.1693,-4.61089 -4.3277,3.96599 c -7.8665,7.20913 -19.0135,6.73637 -26.6377,-1.12975 -3.5516,-3.66431 -4.2077,-5.27508 -4.6001,-11.29257 -0.5875,-9.01179 2.2186,-14.43188 9.4526,-18.2573 6.4534,-3.41258 11.1096,-3.50092 17.6499,-0.33482 5.1079,2.47271 10.3217,9.58772 10.3879,14.17591 0.023,1.61531 2.3961,3.32555 8.221,5.9255 30.5202,13.62249 53.5479,40.23423 65.3438,75.51407 10.2377,30.61884 9.5619,68.35793 -1.7855,99.71789 -6.8207,18.84999 -20.4519,39.57606 -35.415,53.84852 -7.4297,7.08679 -7.5591,7.32201 -7.6625,13.93708 -0.1194,7.64158 -3.3843,13.44558 -9.2778,16.4932 -5.0379,2.60521 -15.6069,2.32314 -19.938,-0.5321 z M 1510.9948,836.87744 c -5.6739,-1.1861 -9.8951,-4.3236 -12.1343,-9.0193 -1.8963,-3.97625 -2.2826,-4.1493 -12.4392,-5.57164 -23.2028,-3.24929 -44.6795,-12.15549 -60.2166,-24.97129 -9.297,-7.66855 -20.8538,-21.64453 -26.7007,-32.28978 -3.4829,-6.34136 -4.4227,-7.2319 -7.6449,-7.24457 -9.0436,-0.0356 -17.6059,-9.22608 -17.6059,-18.8977 0,-17.31197 21.7148,-25.43457 33.6927,-12.60306 5.449,5.83727 5.5774,19.25224 0.2387,24.93507 -2.8878,3.07387 -2.7008,3.61357 5.4362,15.68829 17.0347,25.27866 45.0347,41.8886 75.9491,45.05403 6.9573,0.7124 7.1219,0.65743 9.5163,-3.17949 4.1484,-6.64739 8.4219,-8.98114 16.4467,-8.98114 11.5274,0 18.7963,6.97776 18.7963,18.04354 0,13.21316 -10.4419,21.73205 -23.3344,19.03704 z m -356.5522,-2.26436 c -8.3952,-5.53448 -11.5422,-19.19797 -6.1005,-26.48654 4.7284,-6.3331 8.642,-8.32962 16.3279,-8.32962 8.0247,0 12.2984,2.33375 16.4467,8.98114 2.3944,3.83692 2.5589,3.89189 9.5163,3.17949 32.5212,-3.32995 61.0058,-21.05944 78.2276,-48.69049 l 5.7751,-9.26582 -2.9017,-3.08864 c -2.5125,-2.67442 -2.9016,-4.28767 -2.9016,-12.02938 0,-7.85541 0.3698,-9.33645 3.0457,-12.20035 4.357,-4.66304 8.8552,-6.6829 14.8823,-6.6829 23.39,0 26.1319,34.83366 2.9475,37.44687 -4.7569,0.53616 -5.3563,1.04628 -9.0374,7.69151 -2.1685,3.91449 -7.2181,11.23901 -11.2214,16.27671 -17.7044,22.27917 -42.1567,35.70157 -73.6782,40.4438 -6.6813,1.00517 -12.2308,1.93466 -12.3324,2.06555 -0.1014,0.13089 -1.1032,2.04396 -2.226,4.25125 -1.1228,2.2073 -3.7966,5.08342 -5.9418,6.39139 -5.2603,3.20742 -15.9967,3.23119 -20.8281,0.0461 z M 985.19848,669.54371 c -5.89145,-2.15153 -9.25391,-5.14604 -11.35653,-10.11374 -3.38733,-8.0031 -1.59094,-16.09265 4.9255,-22.18043 3.00204,-2.80458 3.16143,-3.57786 3.16143,-15.33812 0,-20.89051 6.99895,-40.69622 19.95222,-56.46104 5.699,-6.93605 17.0053,-16.7982 20.5554,-17.92989 1.44,-0.45904 2.1334,-1.93804 2.1365,-4.55693 0,-2.1325 1.094,-5.66402 2.4254,-7.84781 7.2555,-11.89985 25.6512,-11.89985 32.9066,0 4.6641,7.64973 2.2302,20.31469 -4.9082,25.54009 -6.4723,4.73776 -17.9807,4.30254 -24.1808,-0.91444 l -3.5703,-3.00425 -6.5611,5.34462 c -16.9178,13.78112 -29.06071,39.46462 -28.99088,61.31862 0.0233,7.28428 0.48191,7.95522 7.56307,11.06451 7.48911,3.28841 10.68171,8.40357 10.68781,17.12375 0,4.01757 -0.8122,7.90028 -2.1274,10.13491 -4.3202,7.34036 -14.39477,10.8235 -22.61872,7.82015 z m 698.23552,0.56811 c -8.707,-2.72906 -13.1629,-8.93349 -13.1677,-18.3352 0,-8.92099 3.1253,-13.99461 10.6798,-17.31172 3.1649,-1.38967 6.198,-3.1341 6.7403,-3.87651 1.4165,-1.93951 0.043,-18.87219 -2.2491,-27.71556 -4.099,-15.81881 -15.8519,-33.73319 -27.6369,-42.12589 -5.4135,-3.85518 -5.5457,-3.88233 -7.6396,-1.5687 -4.9189,5.43529 -18.3852,6.29248 -24.8178,1.57976 -7.2721,-5.32779 -9.7506,-17.9247 -5.0451,-25.64225 7.2554,-11.89985 25.6511,-11.89985 32.9066,0 1.3314,2.18379 2.4229,5.71531 2.4254,7.84781 0,2.61889 0.6965,4.09789 2.1365,4.55693 1.1726,0.37381 5.0702,3.09185 8.6613,6.04011 20.1327,16.52878 31.8463,41.58101 31.8463,68.11096 0,12.13061 0,12.15019 4.1951,16.78827 8.6347,9.55753 6.6476,24.15652 -4.0402,29.68339 -4.513,2.33375 -11.0795,3.19582 -14.9949,1.9686 z"
         id="path869" />
      <path
         style="fill:#b4d891;stroke-width:1.21827"
         d="m 1142.6166,1384.8309 c -6.1272,-4.1199 -7.0384,-8.3262 -7.1164,-32.8513 l -0.069,-21.6243 h -4.2639 -4.264 v -6.7005 -6.7005 h 4.264 4.2639 v -8.528 -8.5279 h 7.9188 7.9188 v 8.5279 8.528 h 5.4822 5.4822 v 6.7005 6.7005 h -5.4822 -5.4822 v 19.9127 c 0,17.9509 0.2259,20.1172 2.2933,21.9881 1.5689,1.4199 3.3005,1.8225 5.4822,1.275 3.1498,-0.7905 3.1889,-0.7182 3.1889,5.8902 0,5.9083 -0.3204,6.7762 -2.7411,7.425 -5.894,1.5795 -12.746,0.7612 -16.8757,-2.0154 z m 40.0199,0.3278 c -9.1056,-4.9376 -14.3117,-17.1076 -14.3117,-33.4561 0,-11.7768 2.2802,-20.3024 7.2736,-27.1957 6.8111,-9.4023 19.2374,-12.517 29.2648,-7.3351 9.1777,4.743 12.7412,12.1092 14.1868,29.3256 l 0.7927,9.4416 h -17.8402 c -16.9672,0 -17.8401,0.1182 -17.8401,2.412 0,4.793 3.9413,12.2928 7.4001,14.0815 4.9124,2.5404 5.8263,2.3066 10.5453,-2.697 l 4.223,-4.4777 5.3625,2.9294 c 2.9494,1.6112 5.3625,3.545 5.3625,4.2975 0,2.2203 -5.211,9.2222 -8.8943,11.9512 -5.0222,3.7209 -19.2528,4.1239 -25.525,0.7228 z m 21.0115,-42.9253 c -0.019,-4.3736 -2.9023,-10.9133 -5.5858,-12.6716 -5.3114,-3.4801 -11.3852,1.2054 -13.2679,10.2351 l -0.8255,3.9594 h 9.843 c 7.0658,0 9.841,-0.4297 9.8362,-1.5229 z m 46.9103,43.1289 c -10.3903,-4.9546 -16.5984,-15.0446 -19.0807,-31.0119 -1.7067,-10.9776 -0.04,-25.8285 3.8977,-34.7455 6.5041,-14.7261 20.3591,-21.4356 35.5512,-17.2163 4.9913,1.3862 11.9161,6.6098 11.9161,8.9888 0,2.5131 -8.5792,11.2706 -9.3171,9.5107 -0.3571,-0.8517 -2.2172,-2.3593 -4.1335,-3.3503 -13.7897,-7.131 -24.004,6.1837 -22.8742,29.817 0.8681,18.1568 8.4179,28.5098 18.9752,26.0207 l 4.5577,-1.0746 0.3538,-10.0083 0.3539,-10.0084 h -4.9224 -4.9224 v -6.7005 -6.7005 h 11.6018 11.6016 l -0.3326,21.5062 -0.3327,21.5062 -4.8731,2.5454 c -6.9244,3.617 -21.3712,4.092 -28.0203,0.9213 z m 91.0735,0.2482 c -6.2356,-3.074 -9.3115,-9.2003 -9.3526,-18.6281 -0.066,-15.1094 7.3711,-22.8838 23.0992,-24.1463 7.6039,-0.6103 7.8703,-0.7441 7.8703,-3.9555 0,-8.8985 -9.1035,-12.4293 -17.4473,-6.767 l -4.3863,2.9766 -3.9526,-4.9904 -3.9525,-4.9905 4.6004,-3.9767 c 8.0676,-6.9739 22.0435,-8.3684 30.7577,-3.069 7.4848,4.5519 8.3495,8.5016 8.7579,40.0074 l 0.3671,28.3249 h -6.763 c -6.5568,0 -6.7643,-0.1024 -6.8002,-3.3503 -0.033,-2.9733 -0.184,-3.0976 -1.3427,-1.1041 -3.036,5.223 -14.3712,7.1614 -21.4554,3.669 z m 15.4846,-11.9853 c 3.5281,-1.8245 5.2469,-5.4398 6.816,-14.3359 l 0.8057,-4.5685 h -5.5498 c -7.8802,0 -12.3309,3.9578 -12.3309,10.9652 0,3.91 0.6783,5.6819 2.8483,7.439 3.4165,2.7664 3.073,2.7433 7.4107,0.5002 z m 109.0298,8.7807 c -7.1344,-7.1343 -9.6195,-15.6273 -9.5269,-32.5582 0.084,-15.3379 2.9912,-24.514 9.6075,-30.3234 7.4199,-6.5147 19.4796,-6.1903 24.8753,0.6692 l 2.5019,3.1807 v -19.6566 -19.6567 h 7.9188 7.9187 v 51.1675 51.1675 h -7.9187 c -7.82,0 -7.9192,-0.041 -7.9459,-3.3503 l -0.027,-3.3502 -2.1048,2.5986 c -3.1832,3.9296 -6.7792,5.3202 -13.7587,5.3202 -5.8306,0 -6.744,-0.4123 -11.5401,-5.2083 z m 24.6579,-15.3667 c 3.0776,-6.1808 3.1064,-25.8717 0.046,-31.4702 -4.6753,-8.5531 -11.8421,-8.3303 -15.7436,0.4895 -2.0851,4.7136 -2.4066,7.5032 -2.0082,17.4222 0.3478,8.6579 1.053,12.6928 2.6422,15.1184 4.4751,6.8298 11.2348,6.1299 15.0636,-1.5599 z m 39.2237,17.8096 c -5.6719,-3.7892 -8.3994,-9.7262 -8.4016,-18.289 0,-11.9176 4.3532,-18.5729 14.5007,-22.1532 2.9129,-1.0277 7.9683,-1.8686 11.2343,-1.8686 6.4953,0 6.8779,-0.5958 4.5918,-7.1536 -2.4471,-7.0194 -10.4609,-8.4563 -16.908,-3.0314 l -3.8219,3.216 -3.5591,-4.1297 c -4.4426,-5.1548 -4.1491,-8.1426 1.1493,-11.7047 8.5926,-5.7767 20.5292,-6.5269 28.6442,-1.8004 2.0684,1.2047 5.1312,4.6292 6.8064,7.6102 2.9586,5.265 3.0577,6.2126 3.466,33.1357 l 0.4203,27.7158 h -6.8163 -6.8162 v -3.9259 c 0,-3.9049 -0.012,-3.9114 -1.9014,-1.2113 -4.6328,6.6143 -15.4806,8.3384 -22.5885,3.5901 z m 17.4074,-11.7712 c 3.1025,-2.4403 5.8642,-9.5743 5.8642,-15.1479 0,-2.9957 -0.3679,-3.2089 -5.5377,-3.2089 -4.255,0 -6.2301,0.6925 -8.5279,2.9902 -4.8779,4.8781 -3.7646,14.8566 1.8829,16.8749 2.9001,1.0365 3.1632,0.9738 6.3185,-1.5083 z m 44.7246,11.7954 c -2.5552,-1.6919 -5.5384,-5.5387 -7.7944,-10.0507 -3.5195,-7.039 -3.6548,-7.9188 -3.6548,-23.7564 0,-15.2026 0.2416,-16.9619 3.1939,-23.2574 1.7567,-3.746 4.7904,-7.9477 6.7416,-9.337 7.5373,-5.3671 18.5824,-4.5317 23.548,1.781 l 2.4556,3.1217 v -19.6566 -19.6567 h 7.9187 7.9188 v 51.1675 51.1675 h -7.9188 c -7.5674,0 -7.9187,-0.131 -7.9187,-2.952 v -2.952 l -3.5612,3.5611 c -3.0614,3.0614 -4.4892,3.5612 -10.1751,3.5612 -4.8204,0 -7.7367,-0.7434 -10.7536,-2.7412 z m 21.3685,-16.7811 c 2.9917,-5.1002 4.0995,-21.8825 1.8978,-28.7517 -1.9007,-5.9302 -5.725,-10.2032 -9.1318,-10.2032 -3.4068,0 -7.231,4.273 -9.1318,10.2032 -2.0541,6.4089 -1.0639,23.3136 1.6717,28.5399 3.8278,7.3128 10.4727,7.4085 14.6941,0.2118 z m -579.2136,-16.4168 v -34.7208 h 7.9187 7.9188 v 34.7208 34.7208 h -7.9188 -7.9187 z m 32.8934,0 v -34.7208 h 8.5279 c 8.4426,0 8.5279,0.033 8.5279,3.2736 v 3.2736 l 3.3503,-3.1961 c 9.4293,-8.9955 22.4725,-7.1646 27.5736,3.8708 2.3419,5.0663 2.6113,8.131 2.9794,33.8948 l 0.4047,28.3249 h -7.8656 -7.8656 l -0.5131,-25.42 c -0.4328,-21.4422 -0.8421,-25.9222 -2.616,-28.6295 -3.7389,-5.7064 -11.2349,-3.1668 -14.2781,4.8373 -0.6433,1.6921 -1.1696,13.4569 -1.1696,26.1443 v 23.0679 h -8.5279 -8.5279 z m 230.2538,0 v -34.7208 h 7.9187 7.9188 l 0.049,3.9593 0.049,3.9594 1.8095,-3.3349 c 1.9733,-3.6369 7.4837,-7.0204 11.4334,-7.0204 2.2794,0 2.4971,0.7433 2.4971,8.5279 v 8.5279 h -3.713 c -4.8085,0 -8.9936,4.4824 -10.7693,11.5339 -0.7454,2.9604 -1.3553,13.9115 -1.3553,24.3355 v 18.953 h -7.9188 -7.9188 v -34.7208 z m 96.2436,-16.4467 v -51.1675 h 8.5279 8.5279 v 51.1675 51.1675 h -8.5279 -8.5279 z m 34.1117,16.4467 v -34.7208 h 7.9188 7.9187 v 34.7208 34.7208 h -7.9187 -7.9188 z m -389.4564,-44.6702 c -5.191,-2.562 -6.664,-13.1634 -2.3289,-16.7613 6.2517,-5.1884 15.8259,-0.5323 15.8259,7.6966 0,7.2359 -7.2866,12.1297 -13.497,9.0647 z m 391.4481,-1.1036 c -2.5899,-2.0372 -3.21,-3.5499 -3.21,-7.8303 0,-4.2804 0.6201,-5.7931 3.21,-7.8303 7.7279,-6.0788 16.414,0.2528 14.4812,10.5557 -0.5122,2.7298 -1.8499,4.5406 -4.2843,5.7995 -4.6938,2.4273 -6.3737,2.3129 -10.1969,-0.6946 z m -92.9783,-168.1196 c -9.3022,-2.7823 -15.374,-14.1715 -12.5607,-23.5611 1.5872,-5.2981 8.3326,-12.9009 11.4458,-12.9009 1.7766,0 1.9492,-13.708 1.9492,-154.75091 V 791.81783 l -2.8165,-1.07083 c -4.2838,-1.62872 -10.1604,-9.01839 -11.0832,-13.93677 -1.5988,-8.52269 2.8607,-17.10949 11.0785,-21.33145 4.047,-2.07919 12.7152,-1.63498 17.4292,0.89318 5.0749,2.72177 9.7656,10.96817 9.7374,17.11911 -0.028,6.09711 -4.5555,13.43949 -10.0307,16.26682 l -4.5685,2.35913 v 154.60136 c 0,134.97942 0.2266,154.60132 1.785,154.60132 3.03,0 10.1725,7.1998 11.683,11.7766 4.9044,14.8606 -9.0401,29.1745 -24.0485,24.6854 z M 1193.4265,980.6638 c -1.9402,-0.58062 -4.9555,-2.38709 -6.7005,-4.01438 -3.0206,-2.8168 -3.9324,-2.95929 -19.0103,-2.97074 -19.3454,-0.0147 -30.1086,-2.50768 -46.9036,-10.86383 -9.794,-4.87292 -13.3596,-7.54572 -23.1896,-17.38305 -8.3616,-8.36793 -12.8743,-14.0454 -16.1075,-20.26498 -4.9109,-9.44693 -8.2156,-20.45204 -8.2156,-27.35924 0,-3.53521 -0.6111,-4.70004 -3.0485,-5.81057 -7.4448,-3.39211 -10.68,-18.5416 -5.6038,-26.24115 7.128,-10.81166 22.8133,-11.73303 31.1465,-1.82959 8.0922,9.61707 3.4629,26.34404 -8.3718,30.24985 l -4.03,1.33002 1.0838,6.35858 c 0.596,3.49723 3.3032,10.91654 6.0159,16.48737 12.5826,25.83964 44.6163,45.19557 74.9399,45.28154 12.7207,0.0361 14.4298,-0.66981 16.0203,-6.61655 1.8554,-6.93706 8.1166,-12.41992 15.4368,-13.51764 4.4632,-0.6693 6.6253,-0.27714 11.3,2.04962 7.1856,3.57657 10.3667,8.75855 10.3667,16.88745 0,7.93557 -3.2076,13.30394 -10.0088,16.75126 -5.6757,2.87687 -9.2671,3.22747 -15.1199,1.47603 z m 278.5783,-1.12738 c -6.9128,-3.13804 -10.0668,-8.49561 -10.0668,-17.09991 0,-8.83963 3.1412,-13.99422 10.516,-17.25645 11.0678,-4.89582 23.3023,0.63957 26.3157,11.90623 1.3417,5.01617 1.6754,5.31335 6.8364,6.08728 19.1973,2.87881 45.713,-5.29972 63.7634,-19.66721 12.6455,-10.06537 23.904,-27.87514 26.3239,-41.64164 l 1.1176,-6.35858 -4.0299,-1.33002 c -11.8348,-3.90581 -16.464,-20.63278 -8.3717,-30.24985 8.3331,-9.90344 24.0184,-8.98207 31.1464,1.82959 5.0762,7.69955 1.841,22.84904 -5.6038,26.24115 -2.4374,1.11053 -3.0485,2.27536 -3.0485,5.81057 0,13.29044 -8.7341,31.7231 -21.319,44.99183 -13.3709,14.09764 -26.3271,22.01411 -45.3115,27.68605 -9.1211,2.7251 -13.2269,3.22967 -27.3829,3.3652 -15.5302,0.1487 -16.8519,0.34625 -19.6019,2.92966 -3.004,2.82202 -9.2784,5.17006 -13.6863,5.12182 -1.3445,-0.0147 -4.7632,-1.0793 -7.5971,-2.36572 z M 882.03041,936.03915 c -4.11973,-1.69551 -8.67888,-5.69068 -10.48939,-9.19184 -2.12111,-4.10177 -2.50197,-14.34975 -0.65588,-17.6485 0.88991,-1.5902 0.0323,-4.19598 -3.51378,-10.67662 -22.88168,-41.81711 -10.87238,-98.15647 25.92808,-121.63666 5.63468,-3.59515 7.00508,-5.09965 7.00508,-7.69063 0,-2.17888 1.72198,-4.9431 5.32193,-8.54305 5.09786,-5.09786 5.62887,-5.32193 12.61172,-5.32193 8.65078,0 14.37879,3.16208 17.69898,9.77047 9.76907,19.44415 -15.21314,37.32973 -31.04533,22.22635 l -3.33148,-3.17812 -7.02184,5.45258 c -18.26402,14.18231 -27.5986,35.28035 -27.68842,62.5815 -0.0536,16.29447 2.3954,26.74376 9.3366,39.83692 l 3.68104,6.94353 6.93043,-0.1921 c 12.67173,-0.35121 20.20688,6.58074 20.20688,18.58932 0,7.64614 -1.99963,11.60184 -8.20788,16.23697 -3.21459,2.40004 -13.29957,3.86875 -16.76674,2.44181 z m 902.07149,-0.83257 c -5.0265,-2.28068 -10.0264,-8.47557 -10.9911,-13.61812 -2.5608,-13.6503 8.2897,-24.75779 22.3437,-22.87275 4.6472,0.62333 4.703,0.58043 8.4522,-6.50608 18.8111,-35.5564 9.546,-83.60226 -20.0922,-104.19089 l -5.2208,-3.62676 -4.1947,3.68299 c -15.8749,13.93836 -39.5933,-4.14538 -30.1332,-22.97458 3.2175,-6.40414 9.0907,-9.77047 17.0461,-9.77047 3.888,0 7.9993,0.8048 9.9263,1.94306 4.2263,2.49653 8.64,8.94228 8.7317,12.75161 0.056,2.32157 1.9576,4.16764 8.7079,8.45253 15.2234,9.66363 27.169,27.23059 32.7712,48.19251 3.9932,14.94187 3.7068,37.66117 -0.6595,52.3151 -1.7968,6.03046 -5.3779,14.82232 -7.958,19.53746 -3.546,6.48064 -4.4037,9.08642 -3.5138,10.67662 1.8461,3.29875 1.4653,13.54673 -0.6559,17.6485 -4.1855,8.09407 -16.161,12.17006 -24.5599,8.35927 z M 1171.3705,682.59945 c -35.6333,-3.23716 -66.419,-18.1803 -98.4131,-47.76891 -5.6868,-5.25925 -6.0031,-5.38073 -13.401,-5.14705 -9.7151,0.30688 -14.6649,-2.52138 -18.1327,-10.36092 -3.5583,-8.04412 -2.2918,-15.28939 3.7242,-21.30539 14.0729,-14.07291 37.0126,-0.801 31.8543,18.42949 l -1.4705,5.48224 9.5437,8.948 c 30.5476,28.64055 67.4218,43.03813 105.6862,41.26527 13.6355,-0.63176 26.5127,-2.67939 37.4847,-5.96048 3.99,-1.19316 4.5843,-1.90017 5.3357,-6.3478 1.0953,-6.48256 7.9811,-13.60774 14.2954,-14.79232 17.69,-3.31869 29.7659,14.15816 20.3962,29.51853 -1.3086,2.14514 -4.1431,4.81245 -6.2991,5.92738 -7.2225,3.73489 -19.4854,1.95422 -23.9995,-3.48492 -1.2387,-1.49258 -3.1011,-1.3355 -13.2471,1.11736 -18.0386,4.36088 -37.0732,5.95889 -53.3574,4.47952 z m 305.7868,-0.47316 c -5.3604,-0.64774 -15.0896,-2.45462 -21.6204,-4.01526 -10.1934,-2.43592 -12.0776,-2.59227 -13.3122,-1.10462 -2.7146,3.27093 -8.2025,5.22706 -14.6515,5.22251 -8.5785,-0.006 -13.7859,-3.22632 -17.0125,-10.52057 -6.5931,-14.90463 5.4977,-29.71849 21.7648,-26.66677 6.3143,1.18458 13.2001,8.30976 14.2954,14.79232 0.7514,4.44763 1.3457,5.15464 5.3357,6.3478 18.2309,5.45184 44.1673,7.64251 61.1256,5.16288 30.0679,-4.39651 58.606,-18.4704 82.0453,-40.46153 l 9.5437,-8.95414 -1.4706,-5.48224 c -5.1583,-19.23049 17.7815,-32.5024 31.8545,-18.42949 6.016,6.016 7.2824,13.26127 3.7241,21.30539 -3.4597,7.82132 -8.4227,10.66756 -18.0703,10.36319 l -7.5141,-0.23707 -8.3234,7.62877 c -24.8762,22.80056 -50.1646,36.56831 -78.6772,42.83414 -12.7749,2.80737 -35.6009,3.83827 -49.0369,2.21469 z M 1187.6928,534.49346 c -5.2158,-3.48438 -8.3992,-9.72975 -8.4016,-16.48292 0,-9.37431 5.906,-16.65735 14.6503,-18.05561 3.7178,-0.59449 5.0475,-1.62982 7.346,-5.71936 4.6341,-8.24534 17.0112,-19.43611 27.5275,-24.88908 16.8945,-8.76021 25.1343,-10.66631 46.1088,-10.66631 15.7694,0 19.5205,0.3914 27.3683,2.85565 9.3748,2.94381 21.2941,8.4764 27.1173,12.58715 2.5692,1.81363 3.8573,2.05377 5.7068,1.06398 2.7187,-1.45504 11.7372,-1.56402 15.2602,-0.18443 1.6747,0.65579 4.67,-0.43178 10.3553,-3.75992 20.7372,-12.1393 46.3408,-16.2195 70.4846,-11.23247 22.6203,4.67236 43.6406,18.37429 52.8075,34.42222 2.1626,3.78584 3.6382,5.0447 5.9254,5.05518 8.2622,0.0378 15.8284,9.06653 15.8284,18.88807 0,11.36778 -7.5501,18.87031 -18.9985,18.87869 -14.6171,0.011 -23.1204,-14.69031 -16.2673,-28.12363 1.3704,-2.68616 3.2791,-5.18612 4.2417,-5.55548 2.4303,-0.93263 0.5345,-4.20307 -7.1412,-12.31898 -23.2913,-24.62711 -66.8932,-29.95826 -98.8333,-12.08422 l -7.2615,4.06364 -0.047,8.43294 c -0.039,6.72185 -0.5994,9.20584 -2.7653,12.24212 -3.9195,5.49493 -10.2625,8.15159 -17.942,7.51475 -7.7471,-0.64245 -11.9695,-3.53728 -15.4636,-10.6017 -2.3092,-4.66865 -2.4967,-6.14497 -1.4374,-11.31601 l 1.2182,-5.94688 -11.0675,-5.43397 c -14.5762,-7.1566 -24.0367,-9.44357 -39.088,-9.44906 -14.3872,-0.005 -27.2902,3.11378 -39.5653,9.56415 -9.3589,4.91802 -19.4489,13.39278 -23.2308,19.51198 -2.67,4.32006 -2.67,4.32007 -0.2415,6.98863 3.9372,4.32631 5.1699,7.63358 5.165,13.85751 -0.01,11.13453 -7.6605,18.6459 -19.0031,18.65421 -4.4397,0.004 -7.3985,-0.78559 -10.3553,-2.76084 z"
         id="path867" />
      <path
         style="fill:#7bb4df;stroke-width:1.21827"
         d="m 1067.704,1620.3484 c -13.4888,-2.8939 -24.7255,-12.3318 -29.8607,-25.0802 l -2.9195,-7.248 -0.3549,-64.9515 c -0.3893,-71.236 -0.1598,-74.1101 6.8248,-85.4833 4.5972,-7.4858 13.6728,-14.0521 22.8583,-16.5385 10.4675,-2.8335 30.4487,-1.9815 38.5537,1.6437 8.5108,3.8067 15.9261,11.2723 19.9188,20.0535 3.1423,6.9111 3.5028,9.1239 3.9191,24.0579 0.6068,21.7664 1.0495,21.1901 -16.6955,21.7321 l -13.5015,0.4124 v -14.7876 c 0,-20.4196 -3.0085,-25.631 -14.7968,-25.631 -7.0598,0 -12.5551,4.098 -14.3993,10.7382 -0.7707,2.7747 -1.2395,26.3655 -1.2272,61.7491 0.019,53.5548 0.1692,57.5874 2.3262,62.3382 1.2684,2.7936 3.5495,5.7448 5.069,6.558 3.7438,2.0037 10.626,2.048 15.3285,0.099 6.6913,-2.7735 7.6996,-6.8475 7.6996,-31.1081 v -21.4403 h -6.7005 -6.7005 v -12.603 c 0,-17.2418 -0.8805,-16.6353 24.1569,-16.6353 h 19.701 v 38.1545 c 0,41.9878 -0.5461,46.153 -7.4842,57.082 -7.2361,11.3984 -18.2822,16.808 -35.7645,17.515 -6.0305,0.2439 -13.2083,-0.038 -15.9508,-0.6264 z m 62.8612,-3.3942 c 0.02,-6.2195 28.0714,-183.2626 29.6266,-186.9848 3.2871,-7.8671 6.1161,-8.7983 28.1861,-9.2763 l 19.5538,-0.4236 15.5824,97.8855 c 8.5703,53.837 15.5572,98.5708 15.5265,99.4084 -0.041,1.1258 -3.673,1.5228 -13.9311,1.5228 -11.4229,0 -14.3295,-0.3768 -16.4459,-2.132 -2.796,-2.3187 -4.2477,-8.4225 -5.6499,-23.7563 l -0.8635,-9.4416 h -18.6018 -18.6018 l -0.6988,5.1776 c -0.3843,2.8478 -1.038,8.467 -1.4526,12.4874 -1.1127,10.7903 -2.7812,15.2061 -6.2427,16.5222 -1.6531,0.6285 -8.178,1.1427 -14.4999,1.1427 -10.1374,0 -11.4935,-0.2517 -11.4874,-2.132 z m 66.5779,-63.3502 c -0.3215,-1.1726 -3.489,-22.2552 -7.0389,-46.8503 -3.55,-24.595 -6.6652,-44.5076 -6.9227,-44.25 -0.525,0.525 -13.5536,87.7633 -13.6054,91.1003 -0.03,1.9095 1.4376,2.132 14.0592,2.132 12.8317,0 14.04,-0.1907 13.5078,-2.132 z m 46.7147,-33.8071 v -99.2893 l 17.3604,0.1441 c 22.3511,0.1855 24.1497,0.5863 26.6928,5.9472 1.1617,2.4491 6.3469,31.4862 12.1827,68.2234 5.588,35.1776 10.3195,62.8456 10.5144,61.4844 0.195,-1.3613 4.649,-31.1553 9.8977,-66.2089 8.4372,-56.3477 9.8469,-64.0381 12.1634,-66.3576 2.4346,-2.4376 4.0426,-2.6509 22.6913,-3.0101 l 20.0709,-0.3865 v 99.3713 99.3713 h -13.1682 c -8.6247,0 -13.8782,-0.5254 -15.2262,-1.5228 -1.8815,-1.3921 -2.0845,-7.2165 -2.365,-67.8406 l -0.3066,-66.3178 -9.6432,65.7087 c -5.3037,36.1397 -9.8905,66.668 -10.1929,67.8405 -0.4859,1.8848 -2.2834,2.132 -15.5058,2.132 h -14.9561 l -1.2252,-7.0051 c -0.674,-3.8527 -5.5295,-33.7454 -10.7902,-66.4281 l -9.5648,-59.4229 -0.6091,65.2547 c -0.5248,56.2265 -0.8619,65.4145 -2.4365,66.4095 -1.0051,0.6351 -7.1726,1.1631 -13.7056,1.1733 l -11.8782,0.018 v -99.2894 z m 144.9746,0 v -99.2893 l 16.7513,0.012 c 19.6058,0.012 24.8987,1.1161 26.9621,5.6449 1.5401,3.3801 4.5538,20.8991 14.7456,85.7189 3.424,21.7766 6.6232,40.5943 7.1093,41.8171 0.5117,1.2876 4.8511,-24.4633 10.3115,-61.1922 5.1853,-34.8783 10.0452,-64.7703 10.7998,-66.4264 2.0606,-4.5227 6.9822,-5.5691 26.1925,-5.5691 h 17.4832 v 99.2893 99.2894 h -12.559 c -8.9213,0 -13.244,-0.5007 -14.9239,-1.7286 -2.2786,-1.6658 -2.3809,-4.0507 -2.8073,-65.4823 l -0.4426,-63.7536 -7.7074,51.7767 c -4.2391,28.4771 -8.6339,57.9441 -9.7664,65.4822 l -2.059,13.7056 h -14.9399 c -10.843,0 -15.0924,-0.4176 -15.4962,-1.5229 -0.3059,-0.8375 -5.1616,-30.1563 -10.7903,-65.1526 l -10.2338,-63.6299 -0.6092,63.139 c -0.4924,51.0441 -0.9294,63.5247 -2.2811,65.1527 -1.3485,1.624 -4.0008,2.0137 -13.7056,2.0137 h -12.0336 v -99.2894 z m 135.73,95.9391 c 0.72,-3.4697 31.1736,-193.8302 31.1736,-194.861 0,-0.3198 8.6345,-0.3905 19.1878,-0.1568 22.2379,0.4922 25.613,1.5907 28.7164,9.347 1.0515,2.6279 5.8057,30.1972 10.565,61.265 4.7592,31.0678 11.0937,72.0827 14.0767,91.1441 2.983,19.0613 5.4236,35.1454 5.4236,35.7422 0,0.597 -6.0799,0.8997 -13.511,0.673 -16.3573,-0.4993 -17.5194,-1.3734 -18.7926,-14.1355 -0.4503,-4.5133 -1.1854,-10.947 -1.6335,-14.2972 l -0.8147,-6.0914 -18.5632,-0.3362 c -10.2097,-0.1851 -18.5632,0.1239 -18.5632,0.6865 0,3.0374 -3.65,28.0674 -4.3644,29.9292 -1.3284,3.4617 -5.7788,4.4413 -20.1772,4.4413 h -13.4185 z m 69.802,-63.3503 c -0.3634,-1.8426 -3.562,-23.2902 -7.1078,-47.6613 -3.5458,-24.3711 -6.6005,-43.833 -6.7881,-43.2487 -0.3963,1.234 -13.7681,91.8372 -13.7681,93.2886 0,0.5344 6.3732,0.9717 14.1625,0.9717 h 14.1624 z m -425.7462,-304.8665 c -12.3321,-7.5191 -11.7808,-26.8069 0.9492,-33.2026 7.638,-3.8375 19.8863,-1.6779 23.5245,4.1478 1.9828,3.1749 3.7748,2.8458 12.1248,-2.2265 18.3271,-11.1332 35.7265,-33.0492 42.2753,-53.2495 1.488,-4.5897 1.4248,-4.8116 -2.1735,-7.6276 -11.089,-8.6785 -8.7669,-26.5807 4.1914,-32.3127 15.5291,-6.8693 31.3924,7.6874 26.0426,23.8974 -1.5252,4.6217 -7.8782,10.5723 -12.4718,11.6818 -2.0493,0.495 -3.507,2.7568 -5.8891,9.1371 -6.826,18.2827 -15.7799,32.2215 -28.3114,44.0733 -7.2302,6.838 -21.8595,16.7789 -27.6766,18.8067 -2.5179,0.8778 -3.6416,2.0774 -3.6448,3.8909 -0.01,3.8983 -4.3108,10.2366 -8.8168,12.9839 -2.5642,1.5634 -6.1279,2.4208 -10.0619,2.4208 -3.9339,0 -7.4976,-0.8574 -10.0619,-2.4208 z m 322.92,0.048 c -4.6314,-2.8239 -7.365,-6.6999 -8.4099,-11.9244 -0.5555,-2.7779 -1.7234,-4.1587 -4.2671,-5.0455 -5.695,-1.9853 -20.3799,-11.9883 -27.5385,-18.7586 -12.3802,-11.7087 -24.4056,-30.6146 -28.4521,-44.7312 -1.9341,-6.7475 -3.2216,-8.5279 -6.167,-8.5279 -1.2581,0 -4.4053,-2.1178 -6.9936,-4.7062 -8.0924,-8.0923 -8.1277,-19.008 -0.088,-27.048 14.493,-14.493 38.3563,1.0534 31.0367,20.2197 -1.1376,2.9789 -3.7362,6.7214 -5.7745,8.3167 -3.5983,2.816 -3.6615,3.0379 -2.1735,7.6276 6.5488,20.2003 23.9482,42.1163 42.2753,53.2495 8.3501,5.0723 10.142,5.4014 12.1249,2.2264 3.6381,-5.8257 15.8864,-7.9852 23.5245,-4.1478 12.7299,6.3958 13.2813,25.6836 0.949,33.2027 -5.2739,3.2155 -14.8131,3.2379 -20.0464,0.047 z M 1004.2638,1000.387 c -31.96422,-8.1235 -58.935,-33.21602 -69.11875,-64.30531 -1.748,-5.33635 -2.58886,-6.36186 -5.73172,-6.99043 -8.64108,-1.72822 -14.62035,-13.16034 -11.99078,-22.92584 3.89909,-14.48009 21.13534,-19.06119 31.75626,-8.44027 7.99792,7.99792 7.91775,18.88428 -0.19883,27.00087 l -4.79271,4.7927 2.42515,6.48178 c 2.90976,7.77704 9.47344,18.90019 15.47413,26.22324 9.40138,11.47315 28.88573,23.65902 44.20785,27.64842 9.6666,2.51688 26.7938,2.64983 33.5025,0.26007 4.7676,-1.69832 4.8865,-1.88336 5.4904,-8.54577 1.0757,-11.8674 8.6404,-18.46048 20.205,-17.60985 23.9685,1.76303 23.0523,37.44519 -0.9614,37.44519 -3.2845,0 -7.6329,-0.859 -9.6631,-1.9089 -3.3724,-1.74394 -4.183,-1.73189 -9.3811,0.13947 -8.6983,3.13143 -30.2788,3.51593 -41.2229,0.73463 z m 638.5788,1.4458 c -1.3402,-0.2885 -5.0442,-1.3336 -8.2312,-2.32247 -5.1429,-1.59578 -6.1977,-1.5894 -9.3811,0.0568 -5.4528,2.81977 -14.7282,2.39027 -19.6695,-0.91071 -11.8163,-7.89378 -10.7675,-27.05632 1.8073,-33.02349 8.3973,-3.98475 19.1458,-1.4688 24.4152,5.71503 1.5453,2.10656 2.7531,6.08094 3.1323,10.30689 l 0.6173,6.87823 5.4822,1.63101 c 6.7902,2.02015 23.0866,2.14533 31.1324,0.23915 8.8479,-2.0962 26.9251,-11.17549 34.949,-17.55316 11.5454,-9.17656 22.0827,-24.16573 27.2154,-38.71348 1.6402,-4.64872 1.6241,-4.69744 -3.1165,-9.43804 -8.0881,-8.08812 -8.1573,-18.98735 -0.1713,-26.97337 13.998,-13.99797 36.9244,-0.54444 31.7594,18.63686 -1.5706,5.8329 -7.2897,11.78839 -12.2784,12.78615 -2.8111,0.56219 -3.7529,1.76117 -5.4473,6.93354 -12.7331,38.87226 -50.6547,66.96206 -89.6639,66.41696 -5.5631,-0.078 -11.2112,-0.3773 -12.5513,-0.6659 z m -347.2082,-87.95688 c -6.4846,-4.00551 -8.3424,-7.06473 -8.8903,-14.63949 -0.3715,-5.13501 0.069,-8.19235 1.613,-11.17648 l 2.1242,-4.10783 -6.9055,-6.42757 c -8.9717,-8.35087 -23.6526,-15.44315 -37.5966,-18.16284 -5.8688,-1.14465 -10.8028,-1.85754 -10.9645,-1.58417 -0.1617,0.27337 -1.3904,2.68993 -2.7305,5.37013 -2.6405,5.28101 -10.6997,10.35533 -16.4467,10.35533 -6.027,0 -13.8006,-5.06662 -16.7513,-10.91804 -1.5076,-2.98969 -2.7411,-6.84815 -2.7411,-8.57434 0,-1.7262 1.2335,-5.58466 2.7411,-8.57435 5.6777,-11.25928 20.4637,-14.11441 29.3485,-5.66708 2.248,2.13735 4.3204,4.60903 4.6054,5.49262 0.3246,1.00647 4.1481,2.05575 10.2365,2.8092 18.6017,2.302 36.4418,10.56748 49.8196,23.08172 6.6882,6.25647 8.3559,7.22337 12.4587,7.22337 18.3486,0 25.4923,24.57452 10.1817,35.02538 -5.1399,3.50842 -14.8204,3.73689 -20.1022,0.47444 z m 68.8319,-0.47444 c -15.2969,-10.44153 -8.1689,-35.02538 10.1556,-35.02538 4.1029,0 5.8019,-1.01025 13.1672,-7.82938 13.3331,-12.34441 36.512,-22.55159 51.3426,-22.60947 3.8407,-0.015 5.4882,-0.91747 9.8303,-5.38532 9.1472,-9.41167 20.708,-10.2262 28.8981,-2.03604 10.2731,10.27312 5.687,27.62579 -8.418,31.85176 -8.9524,2.68223 -19.3128,-2.18189 -22.3117,-10.47514 -1.758,-4.8617 -1.7111,-4.85402 -14.187,-2.31912 -12.7661,2.59391 -27.8021,10.02614 -36.3163,17.95116 l -6.9055,6.42757 2.1242,4.10783 c 3.0993,5.9932 2.1222,17.20622 -1.8716,21.4812 -4.4025,4.71233 -8.844,6.60144 -15.5205,6.60144 -4.1907,0 -7.1691,-0.81745 -9.9874,-2.74111 z m -342.7982,-66.71559 c -11.5859,-3.55763 -16.8421,-19.25649 -9.8785,-29.50436 2.1876,-3.2194 4.7897,-5.11607 9.137,-6.66008 5.138,-1.82486 6.2884,-2.82124 7.437,-6.44141 2.7474,-8.65877 12.5094,-25.52548 19.7884,-34.19014 18.9874,-22.60214 48.9308,-37.37785 84.0508,-41.47531 16.923,-1.9744 41.5501,-0.70879 59.8588,3.0762 14.1703,2.92946 14.6719,2.95267 17.0558,0.7893 4.1151,-3.73446 7.5109,-4.97018 13.6451,-4.96542 11.0816,0.009 18.6496,7.66956 18.6496,18.87869 0,10.89912 -7.5993,18.86962 -17.9995,18.87869 -10.4026,0.009 -17.451,-5.53744 -19.4865,-15.33429 -0.9408,-4.52795 -1.1433,-4.67375 -9.3795,-6.75231 -24.029,-6.0642 -58.6799,-6.29405 -80.435,-0.53355 -32.8151,8.6891 -57.0179,27.41669 -70.7286,54.72824 -5.9792,11.91051 -6.5144,14.73423 -3.1358,16.54244 3.33,1.78214 6.2502,8.79645 6.2502,15.01281 0,5.92548 -3.2657,11.91094 -8.5279,15.63027 -3.7449,2.64687 -11.5976,3.76459 -16.3014,2.32023 z m 624.9746,0.0264 c -4.2017,-1.32187 -8.8767,-5.48711 -11.2255,-10.00163 -3.5436,-6.81062 -0.9273,-20.06299 4.5384,-22.98813 3.3788,-1.80821 2.8435,-4.63194 -3.1357,-16.54244 -13.7028,-27.29591 -38.2135,-46.26911 -70.7572,-54.77174 -21.8454,-5.70747 -56.4896,-5.45884 -80.4064,0.57705 -8.2362,2.07856 -8.4387,2.22436 -9.3795,6.75231 -2.6344,12.67927 -16.0516,19.06975 -27.7247,13.20498 -12.7299,-6.39575 -13.2813,-25.68364 -0.9491,-33.20266 6.9427,-4.23305 17.2473,-3.11845 23.4825,2.54 2.3839,2.16338 2.8855,2.14017 17.0559,-0.78929 58.2651,-12.0453 114.0333,2.83522 143.9096,38.39911 7.2789,8.66466 17.0409,25.53137 19.7883,34.19014 1.1464,3.61307 2.3013,4.61733 7.3867,6.42356 7.8937,2.80356 11.3575,7.60739 11.9877,16.62531 0.3912,5.59726 -0.023,7.50455 -2.375,10.93212 -1.567,2.28357 -4.2195,5.14649 -5.8946,6.36206 -3.7037,2.68758 -11.5381,3.7878 -16.3014,2.28925 z M 914.48681,738.39847 c -7.4965,-4.94235 -10.51157,-13.65552 -7.62475,-22.03456 1.71558,-4.97949 1.66744,-5.22681 -2.33391,-11.99318 -5.66108,-9.57301 -9.9923,-23.30855 -11.6798,-37.04 -4.13405,-33.63953 11.53102,-70.52751 36.22063,-85.29203 5.49825,-3.28798 6.85831,-4.79735 7.93938,-8.81099 3.78088,-14.03699 21.25257,-18.50214 31.66284,-8.09189 7.62366,7.62367 7.88571,19.15997 0.6007,26.44498 -7.6819,7.6819 -19.99977,7.96574 -27.20026,0.62678 l -3.39149,-3.45671 -4.87309,3.38315 c -12.08376,8.38913 -21.64375,21.92562 -27.06505,38.32279 -2.79099,8.44163 -3.23345,11.86611 -3.30553,25.58376 -0.0932,17.72511 1.35109,24.32635 8.53422,39.00807 l 4.18375,8.55123 7.8191,-0.0233 c 6.02098,-0.0179 8.59373,0.55433 11.18757,2.48852 11.60657,8.65484 11.83674,24.14831 0.47397,31.90442 -5.24465,3.57993 -16.03689,3.79884 -21.14828,0.42896 z m 830.08099,-0.42896 c -11.3627,-7.7561 -11.1326,-23.24958 0.4739,-31.90442 2.594,-1.93419 5.1666,-2.50646 11.1877,-2.48852 l 7.8191,0.0233 4.1837,-8.55122 c 7.1832,-14.68173 8.6273,-21.28297 8.5342,-39.00808 -0.072,-13.71764 -0.5146,-17.14212 -3.3055,-25.58375 -5.473,-16.55328 -14.9537,-29.9016 -27.3821,-38.55217 -4.2977,-2.99135 -5.3136,-3.29099 -5.9077,-1.74265 -1.3304,3.46698 -8.8593,7.07166 -14.9626,7.16372 -6.6413,0.10014 -12.5023,-2.77653 -16.4518,-8.07499 -3.5738,-4.79448 -3.6024,-16.31069 -0.052,-21.06584 6.2088,-8.3161 16.6167,-11.21676 24.8751,-6.93259 4.8617,2.52222 9.7704,9.18189 9.7704,13.25587 0,2.08633 1.8034,3.87281 7.2485,7.18055 20.1471,12.23868 34.5817,38.23276 37.2949,67.16103 1.6044,17.10654 -3.6671,41.05993 -12.2188,55.52099 -4.0158,6.79084 -4.0553,6.99681 -2.3107,12.06037 2.8591,8.29885 -0.53,17.8191 -7.8842,22.14753 -5.3711,3.16124 -15.8349,2.85644 -20.912,-0.60914 z m -411.1669,-13.04709 c -1.3401,-0.55796 -4.0351,-2.70397 -5.9889,-4.76891 -2.8047,-2.96426 -3.6697,-5.16908 -4.1097,-10.47576 -0.6822,-8.2265 1.134,-13.00372 6.6821,-17.57704 l 4.1651,-3.43315 -2.5562,-10.01155 c -10.2242,-40.04383 -34.6343,-71.06264 -70.2628,-89.28511 -36.8838,-18.86456 -77.1411,-21.29954 -115.4116,-6.98072 l -6.8327,2.55643 v 5.82368 c 0,18.60529 -23.0882,24.84935 -34.6455,9.36964 -3.5502,-4.75516 -3.5218,-16.27137 0.052,-21.06585 5.8035,-7.78568 17.8222,-10.55185 25.6796,-5.91032 3.4228,2.02188 3.8499,1.96326 15.6683,-2.15046 59.3842,-20.67029 129.885,-1.15952 167.2467,46.28479 12.761,16.20469 20.0547,29.62183 25.6968,47.27041 1.4994,4.69035 3.0036,9.35025 3.3428,10.35533 0.339,1.00507 2.4726,-3.8135 4.741,-10.70796 14.9237,-45.35581 50.2553,-80.04314 96.1777,-94.42383 32.7978,-10.27071 74.6381,-8.96808 101.9619,3.17441 5.6221,2.49837 7.1876,2.78034 8.2603,1.48782 2.1525,-2.59353 11.0683,-4.30436 16.2915,-3.1261 11.804,2.66281 17.854,16.85051 11.9748,28.08167 -2.5462,4.86395 -10.8762,9.72719 -16.6611,9.72719 -5.785,0 -14.115,-4.86324 -16.6612,-9.72719 -1.2221,-2.33472 -2.2221,-6.52515 -2.2221,-9.31207 v -5.06712 l -7.6142,-3.02156 c -18.0926,-7.17969 -40.9299,-10.26575 -60.9204,-8.23231 -61.3141,6.2369 -108.712,46.20507 -123.3187,103.9883 l -2.7559,10.90226 5.2113,5.00641 c 6.7065,6.44279 8.1553,13.45026 4.4928,21.72995 -3.3186,7.50202 -8.7862,10.71058 -18.0813,10.61041 -3.9412,-0.0425 -8.2623,-0.53372 -9.6024,-1.09169 z M 1138.3813,527.63897 c -12.0365,-5.46675 -15.2106,-19.98629 -6.5303,-29.8726 l 3.609,-4.11044 -4.8803,-6.17401 c -13.1322,-16.61345 -36.7163,-27.00432 -61.1756,-26.95318 -14.2165,0.0297 -25.3618,2.68719 -38.5302,9.18704 l -11.3596,5.60703 0.7822,4.62963 c 1.8377,10.87731 -3.8529,20.46183 -13.7273,23.12075 -19.32726,5.20428 -32.30844,-18.08529 -18.03579,-32.35795 4.77237,-4.77236 11.29847,-6.26499 18.71689,-4.28088 4.6661,1.24799 5.7122,1.14062 8.5752,-0.88011 6.2192,-4.38963 18.4173,-9.90803 27.8709,-12.60884 12.288,-3.51056 36.6401,-3.7766 49.7046,-0.54299 19.165,4.74358 38.4502,17.25726 47.437,30.7806 4.1957,6.3139 5.6308,7.56522 9.4312,8.22399 6.0333,1.04579 12.574,7.39257 14.3268,13.90193 2.7519,10.21971 -2.9331,20.557 -12.8139,23.30036 -6.3539,1.76412 -7.5747,1.67572 -13.4008,-0.97033 z m 394.9619,1.10334 c -7.4568,-2.34593 -12.9372,-10.11732 -12.9372,-18.34543 0,-9.85 5.9665,-17.14734 15.4922,-18.94768 2.9323,-0.55421 4.6645,-2.01164 6.8823,-5.79035 1.63,-2.77735 6.4454,-8.37973 10.7007,-12.44973 28.0347,-26.81345 76.4345,-31.26437 111.9443,-10.29452 7.4638,4.40771 8.2696,4.62111 12.8409,3.40095 7.3124,-1.95177 13.6445,-0.27509 18.9326,5.01318 10.6039,10.60383 6.0414,27.85678 -8.3945,31.74397 -14.1037,3.79771 -26.6409,-8.20009 -23.4327,-22.42456 0.9208,-4.08252 0.7501,-4.35504 -5.0624,-8.08496 -3.3084,-2.12301 -10.7849,-5.55862 -16.6142,-7.63468 -9.8421,-3.50512 -11.7733,-3.77596 -27.0455,-3.7932 -14.9209,-0.0168 -17.4562,0.31225 -27.3268,3.54716 -13.1982,4.32547 -26.9744,13.18863 -33.6747,21.66507 -5.0526,6.3921 -5.831,8.82805 -3.1498,9.85693 2.6678,1.02373 5.6741,8.73854 5.6741,14.5609 0,5.90486 -3.227,11.84101 -8.5279,15.6877 -3.7037,2.68759 -11.538,3.7878 -16.3014,2.28925 z"
         id="path865" />
    </g>
  </g>
</svg>
